<mxfile host="Electron" agent="Mozilla/5.0 (Macintosh; Intel Mac OS X 10_15_7) AppleWebKit/537.36 (KHTML, like Gecko) draw.io/25.0.2 Chrome/128.0.6613.186 Electron/32.2.5 Safari/537.36" version="25.0.2">
  <diagram name="PÃ¡gina-1" id="LDlF3dFWqFJcOSGQYSzg">
    <mxGraphModel dx="1707" dy="469" grid="1" gridSize="10" guides="1" tooltips="1" connect="1" arrows="1" fold="1" page="1" pageScale="1" pageWidth="827" pageHeight="1169" math="0" shadow="0">
      <root>
        <mxCell id="0" />
        <mxCell id="1" parent="0" />
        <mxCell id="MRQ7gDNeuLcYPqNr2epW-3" value="" style="rounded=0;whiteSpace=wrap;html=1;fillColor=#FFFFFF;strokeColor=#d6b656;fillStyle=solid;" parent="1" vertex="1">
          <mxGeometry x="-100" y="80" width="790" height="380" as="geometry" />
        </mxCell>
        <mxCell id="Aq05t7c2WjxG7eI3XZw3-9" value="&lt;span style=&quot;font-family: Menlo, Monaco, &amp;quot;Courier New&amp;quot;, monospace; white-space: pre;&quot;&gt;python&lt;/span&gt;&lt;span style=&quot;font-family: Menlo, Monaco, &amp;quot;Courier New&amp;quot;, monospace; white-space: pre;&quot;&gt;:&lt;/span&gt;&lt;span style=&quot;font-family: Menlo, Monaco, &amp;quot;Courier New&amp;quot;, monospace; white-space: pre;&quot;&gt;3.12-alpine&lt;/span&gt;" style="rounded=0;whiteSpace=wrap;html=1;fillColor=none;strokeColor=#ABABAB;dashed=1;fontColor=#000000;labelPosition=center;verticalLabelPosition=bottom;align=center;verticalAlign=top;textShadow=0;labelBorderColor=none;labelBackgroundColor=none;" vertex="1" parent="1">
          <mxGeometry x="-70" y="130" width="140" height="210" as="geometry" />
        </mxCell>
        <mxCell id="Aq05t7c2WjxG7eI3XZw3-16" value="" style="shape=image;verticalLabelPosition=bottom;labelBackgroundColor=default;verticalAlign=top;aspect=fixed;imageAspect=0;image=https://logohistory.net/wp-content/uploads/2023/06/Python-Logo.png;imageBackground=#FFFFFF;" vertex="1" parent="1">
          <mxGeometry x="-59.99999999999999" y="140" width="120" height="67.5" as="geometry" />
        </mxCell>
        <mxCell id="Aq05t7c2WjxG7eI3XZw3-17" value="" style="shape=image;verticalLabelPosition=bottom;labelBackgroundColor=default;verticalAlign=top;aspect=fixed;imageAspect=0;image=https://www.freecodecamp.org/portuguese/news/content/images/2024/06/pyspark.jpg;" vertex="1" parent="1">
          <mxGeometry x="-60.00000000000003" y="200" width="120" height="67.65" as="geometry" />
        </mxCell>
        <mxCell id="Aq05t7c2WjxG7eI3XZw3-18" value="" style="shape=image;verticalLabelPosition=bottom;labelBackgroundColor=default;verticalAlign=top;aspect=fixed;imageAspect=0;image=https://miro.medium.com/v2/resize:fit:1400/0*msfsws06ImMSJYop.jpg;spacingRight=14;" vertex="1" parent="1">
          <mxGeometry x="-59.99999999999999" y="270" width="120" height="48" as="geometry" />
        </mxCell>
        <mxCell id="MRQ7gDNeuLcYPqNr2epW-10" value="" style="rounded=0;whiteSpace=wrap;html=1;fillColor=none;strokeColor=#ABABAB;dashed=1;" parent="1" vertex="1">
          <mxGeometry x="90" y="130" width="570" height="300" as="geometry" />
        </mxCell>
        <mxCell id="Aq05t7c2WjxG7eI3XZw3-12" style="rounded=0;orthogonalLoop=1;jettySize=auto;html=1;exitX=1;exitY=0.5;exitDx=0;exitDy=0;entryX=0;entryY=0.5;entryDx=0;entryDy=0;edgeStyle=elbowEdgeStyle;strokeColor=#000000;startArrow=oval;startFill=1;" edge="1" parent="1" source="Aq05t7c2WjxG7eI3XZw3-17" target="Aq05t7c2WjxG7eI3XZw3-2">
          <mxGeometry relative="1" as="geometry">
            <mxPoint x="210" y="190" as="targetPoint" />
            <mxPoint x="42.2800000000002" y="215.00499999999988" as="sourcePoint" />
            <Array as="points">
              <mxPoint x="80" y="215" />
            </Array>
          </mxGeometry>
        </mxCell>
        <mxCell id="Aq05t7c2WjxG7eI3XZw3-13" style="rounded=0;orthogonalLoop=1;jettySize=auto;html=1;exitX=1;exitY=0.5;exitDx=0;exitDy=0;entryX=0;entryY=0.5;entryDx=0;entryDy=0;edgeStyle=elbowEdgeStyle;strokeColor=#000000;startArrow=oval;startFill=1;" edge="1" parent="1" source="Aq05t7c2WjxG7eI3XZw3-18" target="Aq05t7c2WjxG7eI3XZw3-2">
          <mxGeometry relative="1" as="geometry">
            <mxPoint x="210" y="190" as="targetPoint" />
            <mxPoint x="32.40000000000009" y="257.8499999999999" as="sourcePoint" />
            <Array as="points">
              <mxPoint x="80" y="230" />
            </Array>
          </mxGeometry>
        </mxCell>
        <mxCell id="Aq05t7c2WjxG7eI3XZw3-11" style="rounded=0;orthogonalLoop=1;jettySize=auto;html=1;exitX=1;exitY=0.5;exitDx=0;exitDy=0;entryX=0;entryY=0.5;entryDx=0;entryDy=0;edgeStyle=elbowEdgeStyle;strokeColor=#000000;startArrow=oval;startFill=1;" edge="1" parent="1" source="Aq05t7c2WjxG7eI3XZw3-16" target="Aq05t7c2WjxG7eI3XZw3-2">
          <mxGeometry relative="1" as="geometry">
            <mxPoint x="42.590000000000146" y="176.92499999999995" as="sourcePoint" />
            <Array as="points">
              <mxPoint x="80" y="190" />
            </Array>
          </mxGeometry>
        </mxCell>
        <mxCell id="Aq05t7c2WjxG7eI3XZw3-6" value="" style="rounded=0;orthogonalLoop=1;jettySize=auto;html=1;strokeColor=#000000;exitX=1;exitY=0.5;exitDx=0;exitDy=0;entryX=0;entryY=0.5;entryDx=0;entryDy=0;startArrow=classic;startFill=1;" edge="1" parent="1" source="Aq05t7c2WjxG7eI3XZw3-2" target="Aq05t7c2WjxG7eI3XZw3-3">
          <mxGeometry relative="1" as="geometry" />
        </mxCell>
        <mxCell id="Aq05t7c2WjxG7eI3XZw3-19" style="rounded=0;orthogonalLoop=1;jettySize=auto;html=1;exitX=1;exitY=0.5;exitDx=0;exitDy=0;entryX=0;entryY=0.5;entryDx=0;entryDy=0;strokeColor=#000000;elbow=vertical;startArrow=classic;startFill=1;" edge="1" parent="1" source="Aq05t7c2WjxG7eI3XZw3-2" target="Aq05t7c2WjxG7eI3XZw3-4">
          <mxGeometry relative="1" as="geometry" />
        </mxCell>
        <mxCell id="Aq05t7c2WjxG7eI3XZw3-2" value="Trino&#xa;Query Processor&#xa;Big Data" style="shape=image;verticalLabelPosition=bottom;labelBackgroundColor=none;verticalAlign=top;aspect=fixed;imageAspect=0;image=data:image/png,iVBORw0KGgoAAAANSUhEUgAAAMgAAADICAIAAAAiOjnJAAA5PklEQVR4nOy9CXgb1bk3Pqs02ndb3nfHzuKGJQFaCFuAFEJpoSyh/97Se3vbsCQtXJaW3lKgBcptyb8sLZSlpV+B3tJAL5cQaCEEQwvJl0BIyOrdWq3F2qWZ0WzfYx17PJZkWXZseZTm9wQeaTQzOjr+zXve865YmmGhkziJ+Qay2AM4iRMT2GIPYO5IxOORSDiVSgk8D0GQAEEYimp1OpPZrFQSiz26f3bA5bgUCoLgdrnCoVGTyVRVXU0Q4zSKx+OO4WGWZZtbWwlCtdjD/KdG+RGL53mnY5hlmJraWp1Ol3vCyMiI1+utq6s3GI2LMcCTgMpvKRQEYWigH4Kgjs7O6c6x2+04jrtdLr1BD8MnlcjFQZnNezDgp2m6vqGh8GkWi0Wv1w8ODPAZ9eskSo9yIhbP8wG/v62tTaWaWX+qtNuTiUQiHi/J0E4iG2VDLEEQhocGDUajSq0u5nyVSmWxWKKR8MIP7STyoGyIBcSPzWYr/pK6+vpEIrGQgzqJaVE2xIpEwgajUaPRFH8JgiAqtTo0OrqQ4zqJ/CgbYsVjsYaZdPZc6LTaYMC/MCM6iUIoD2KNBoMEQWDYrI0jarWapul0Or0w4zqJaVEGxBIEwe8bKVJnzwK4iqLIBRjXSRRCGRhISZJkWXZW2pUIHMeVSiVNUZDesABDkxd4jovFYslkgqIolmHGDsEwQRAardZgMOI4XsrBlAGxUskkiqIKhWJul+sNhn+GpTASDrucDgiCzGZzbW2tVquFIIjjuGAw6PV4gn5/c0urQqks2XjKgFgUSVqsVkEQ5na5Tqfz+09k/T0Rj/v9Po7jqqurTWaz9AlEUbSystJqtfp8vt6eY7Ul9J+WAbFIMmW11cMwPLfLNRoNk2bme1ByQcDvH/F6bDabyWwGUioXKIpWV1erCMLpdOoNhjnP5Kwgd+WdZVleENLpNIqic7sDjuM8z833uBYfHMc6hofCodGKykqdXq+eaXNjMpt1Op1zeHjOsn9WkDuxEok4QRAURSHI3IcKw7AgnFDeaIZheo4eZVnWYrWqVCqj0VjM/Fgslmg0UhqNU+7EikWjQFYVmjiW5+OFFjsUw2iKXpDxLQYokhweHFSr1TqdDkVRg6HYDa8ms1aSZGqBBwjJnViCIMRjMUCp6ZbCxEuDg7qXhsx/DN/76XT3wTEszZwgG0OSTPX2HFMqFSq1GkVRm81WvN0YRVGCIEqjccqaWAzD8DyPYRgMw7kSS2D40I/2Bf717wLFQawQvm9/7Dc9ee+DIEiaPhGIlUql3E6nyWxWEgSCICaTabZ3wDCsNDFq8iZWRhvAcTyvuEq+Mhz56QGBnpym+HO9ee+DoCjHlVkEdi4okuzv7SEIQqFQwDBss9nmYNuD4dJsCuVNrHQ6ndG7hbzSPvrYkawj9L5Rpi+WeyaCICxb3sRK07TL5TQajcDIaTAY5uA5HZsimkaQOe6vZwW5E4sgCI7jcicx9b9O+qNA9gWsEH++P/c+aJkTi2GY3p5jOI4rM/lIBoNhbg4unufT6XRpfDuyJhbLMBqtNldiCRQ3evvevJck/zSY52hppP/CgOd5t9Oh0WpBQLZarZ7OEDojKIoaUy3m6hybFeRNLJZVZiR/FrHovUGmN8+SN/Zw98X5SLaejsAwz5WlHSuTlTTACwKwf2IYZjwOnwxFkhAEiWmYCwpZE4thxjfGWcSi/lHI98c6krkHBagU5uZ5h29khGUZsPDhOG6z2Y5H904kk3qD4XhMzcVD1sTiOBboRlm7QmpXsNBVvuzoKxhByjEPLB6LhUOjJrMZkKlI83oBpJJJW0XF/A2wEGRNLDChuc9o+kCowFWcn8o9WBoH2TwiHo+DrCRBEGAYNk8NW5gDSJJkOU6tnovWPwfIN7qB53nwgGY9plyAYgcK5d7k6lhlB0EQPC5Xpd0OngfthOZ+PHC7XFptnooECwT5EouecDxnSazUNmfhC7lYtsuivMQVy7KOoUGFAgfDJgii8DaQ+sCXfGWY/niUj6TVX6ozP3Bq7jkkScZisYam5oUc+BTIl1jAOpqrYJHvjBS+UMh1SAvCnKNuSo+A30dSVGVlJc/zOI5bLJbpzuSj6cC3PkxuHRaPpA9HzfefAqHZykMkEsEwLG8NlQWCjInFpIGcyZJY5E5v4QsFqoyjryKRcDwWA6yCYXi6yAWB4ZNbh8P372eORqXHYSWSyyoIgsKhcE1tXYm8ORnIl1gswyCZiZDqWHyM4bwzpNwIqWwjO18mEiuVSjmHhy0WC9jDms1m5TRR6uEf7Ys8fDD3uOIUc+7BYCAAI7C+6OiaeYF8icUwTO4TxnpnjiXimWzLgpB5+ud1dPMPnue9HrfRZMIVCkEQNBpNXksmO5wYvW1P8n8ceW+ivqQm6wiTTrvd7kq7fWFGPS3kSyyWYbCMV0sqsThfHlNCNrhsVV0QhNJYBY8HLqcDgWGlUilk5Gv+RZATfFd303umNeNprmnMOjIaCgmCYDLlkWQLCvlON8uyubtCPjRzIKiQzpZYvCBgqHwfIQiCQqOj8XhcnbGwoyhqtVpzRSz9ach1yusFWGX8YZeiYwodOY4bHR2tb2hESq4JyJdYHMflIVa4CBsVnyOxeB7D5Ussnud9I96amhrwS3U6XW40h5Dm/dd2pz+btioT3mEw//SUrIMul0uhUOj0+oUZeCHImli5lnduTsZPnudRuUoshmH6e3s0Gg3IcVBnkHVO+mDYteI1pie/3x3AcPuyrCPxeHw0GLRYrQsw6pkhU2LxPA9cGVnEEpJzCasC8c3zOsB5Q8DvZ1lWPeFmNplM2YugAPn/5e+FWaX4nFl/Q2vWQb/PZzAadbpFEFfyJZbUVj6FWORciMWNSSw5mhui0UgiHqvIWK0gCNLnrFmsO+U59830vkK+UaxRU/XW2izzVWh0lKLpmtq6hRn4zJApsQByFVghNRfjZ0bHKmlJjGJAUZRjaEij1XIcB1iVa18YvX0v9cEM9QGMdyxH7aqsOw8NDdlsFYv4OMmUWIIkymWKxErPhVgcx8lNYgmCMOLx6A0GELOgVCqz/C0CzY3esTf5cr6AWAnUX67T5iyCI16vTqdf3DL3MiUWQB6bZo6NKs9VeE6imPws7wG/j2UZtVoNFv3cRTD+XF/0F4egglFkeLve/pcLEPUU9TEWjcZi8YampsU13cmUWDzQseZmLs/nLJMVYrGob2REq9OJrMqKtaJ2B8L3TZt/K8L8s+xAhlQqNTAwUGm3L7qnQaZ7pekg5LhrcgFjU56WMb14sWc5CyMeb1VVFXh4chdB1pn0nvPWjL/UsLlT85Xsoqxer1ej0ZqnD4goGWQqsaZD7jKX5xxsCo2Op1LNvIPn+eGhQRzHxBU9O5RFgIKbd8/IKtUl1ZZHTs866PV603S6vjHbq7MoKDNiFQVkKrFoGi1JimYxiEbCsWhUbzCARVCj0WTFL0Qe+iz1PzNEMkIQZNmyCpoqmKPRqNfjqbTbZeIVlcUgCmNK/KeyCImlmHIORdMIKoufybJsIBCotNuBfQHDsCxPc+oNV+g/Pyl8E1iLVb52gWLplB0fwzAet7uqqlpbwlC+wpDFjOcCkZoYpMbSYigyVWLRNC0Tf45jeEgpUdJ1Ol2Wih36wSczZqnpb1yi+dIUsyfP8z3HjikJwlpRseg6uwiZEgsAUEqauQWrZ17UsiQWTVEYtvhLYSQSJlMpYiInAsdxaX6EkOYC3/x7AR8zgHKV1ZjjE3S73QIEVVSWOuKqMGTxKBfGFImlmnnAsHIKjdLptFozx5z0eUTQ76+srAQ7QRiGswJjkq868ladkAKtVld/sC7r14VCodBoqKOzs/SBMYUhV4mVmfQ8EktVxPRN/U2ZpXCRJz0Y8EMwzE88ISqVakq8dYqNPPTZjDexPHJ6Fquikcjw0FBNTY3cWCVfYoF5B8QCqu74ce3MLj/p7HMcJwgCuqhLYZqmvR6PNIUrK51r9Obd6QMzLILGO5drr2uSHhEEweFwVFVXG2Zffq0EkPVSKPA8hKJSiYXoi/AlS+xYIEN/ccNHR0eDWq1WFFFarVZaSCi13RV/vq/wHdSX15ofOk16hKbp/v5+rU5vsc6iz14pIWuJBbSQKRLLOHOaudTyzuUr/VBKCIIQjUQ0EyIKQZAsE0N0y+EZboHAll+uzvpDuV0unuOra7JTJ+QDmRILsAGoJGA5AwcRQxH1CyS7QjZDysUiliAIbqdTagLNig6N/7aX3Fko/xYxKap2XIw3T1qneJ53OZ00nW5pa5OJLTQv5DsyDMNEPomlyRFTERJLYscal1iLpGPRFBUOh9SS6ntSYrHDicC/fZgboS+F4bZlqvOm2BGCwaDf76+prZVtTCyAjImF49AEsWh6PDkHtRbRZkiqY2UyMmB4cX5mJBzWaLWiWYEgCKl2FX3iaOHL1etqDJs6pEdi0ajf729sap5bk71SQr7EwvFJ4TRJLDMxY1TMFB2L43BcsVj26Gg0Ig20klbPFigu/kz+4uEAeIfBvn2tdOlPJpN9fX0Wq3VRsm5mC/kSS6lU8JKlcHxZRCC8faZplTCP4ziFshQlN3MRDAQwHBe3tESmMvv4Zwzvu/o9Pjp9IX8Utvz/q6SBjizDOB0Oq9VmNi9+SEwxkC+xCELFS/aD4t5QsWyGiFtpaA3PccdZr2xu4DluxOuRfrXUgUN2j6S2uQpcbvnF6ep1kzs+nuePHj2KKxRVNTVyVtilkO8olQSRZhhxHsV62orPzSJbPG8p7xIgGovCmXx58BZBEGmiRKzgIqi5qsHwvaXSIw6HA0FRe1X1go13/iFjYimVGQ1pXNsVJZYyX0GVKZBmTi9SRmE8FrPaJk2Xer1+8gkZTCS35i/pAWD+rym2UI/HE4/HW9vaF0X0zhnyJRZIphBNUJMSayZiwcopyjtacmJxHEemUuLIURQV6/3zJDty1c7pTAywCrX/7wVSq1UwEPCNjJS4tNW8QNbEwnGFqPyKxMKq1bC2WK7wgoBhpc4oDAb8SoIQRz5Fu/qrp0D2qe5fWtSXT8Za0TTtcrmaWlpKWYlvviBrYikUClDzXkqsMW7VFGvF4cd0rJJaRzmOCwYCUnuVVLsq4BZEK1WGO5eLb5PJ5LGjR20VlRoZxPzMAbImFq5QxONx8HoKsWqLrSktlFxiJRMJnudFMmEYJqrwTF889b/TxLMjUNVba6WLoMPh0Gi1FZWVpRj0AkDWxFIoFSRJiurFpJm0tqDEkmgjfMmrNsTjMb3BIK6DYocSgeb8178/XeSx7tvtipXjuiPLsn29vRiG1dVnZ3eVEWRNLKWSEARB5IlIrMISSxqPVfoy3MlEwmw2A3MujuOiuCLfG5m2ZhoKm370OfHdyMhIIpEoR4VdCpkTa2yDzUwsgqB51RixGopur1DaCu+pVBJGEPEBkGpXiRcH8l4CE6j9f87HqsdlcCAQiEYiLW3tpWn+tnCQNbFQFFOpVOLfCXTyzRCraH22tA+93+dT5dsP8glWWo1dCs1XG9Trx3eC0WjU6XBU2qtK06BrQSFrYmWaPhqllWfGI0IbCxFLoCUVaUoosBiGicdioj1WqVSOSx0eCnzz7wKZp04OTKBiJb50Ou12uexV1SWum71AkDux9EYjn0MsvCCxpGRCkNJJrFQyCTxR4K2ottOfjk4nriy/XK3MeKg4jjt29KhKrbHJKTfweCB3YimVSi6HWLACIT5fVHs0voQ6VjKZ1Ov1wPWE47gouqbTrojz7fpvt4PXLpcLxbDSV2NfOMidWMBMmuuKVq0ryiML56uxtUAgUymL1Qrkq9TanvxzfnFlvH0ZGF0wEIhGo61tbeWusEtRBsRSqVRkarwhhUgsaVTJdMjUXV7gwUm+i2UZafQVeBHdcoh15un4qv16i/riatA+yel0VtfULFaY6wKhDH4MoVJFo+OtiERiKVdZi0peLRWikQihUgGDiKi285H06J0f556MNWor/s/ZoFxMRmGvMhgWs6zjQqAMiKUiVEIGwEUjJlZgrXJxzQqCMBoM4BNKlRiOnNg6lLe2Jai/wHFcb08PoVJZbSVqp1tKlAGxFEqlQqGgJ6yjoplU0VpM6Hcp1kKGYSiKAoWZcRwXA6eSL+fRrtBqtf7f24EtNJFIVJVV+F7xKANijW3LrTYx0G/S/t5SjMQqxa6QJFOAUlLtij4Qpt7PzhlE9HjVm2shBUKSZDAYbGxuwcsqfK94lAexzBYLw4ynHoj2d3yJXJJVKJLUaDRip11wMPjtDwU6u+KjZkOTossEFkG93lC4J29ZozyIhSAIgqKi5RCQTNEpF4WXJEmz2cyyrLgOUrsD9O5slzOsRPQ3d0AQ5PP5EASRxi6feCgPYoEcYlFojRshO+Ti+qAoChjcRbU99WqeqHbzQ6cpV5h4ng/4/WOL4AlktcpF2RBLpVaHQ+NBvYBhqEWpWFGogg8sKUm1cKBpGkXGdCYURcfXQU5I5HRAVZ5pNWzu5Hm+v79fbzBM15P3hEHZEEuj0YKWYFJrlubK+gKXlCYFLxaNKgmCZVlRu0r8eYjNadZluKUTQuFYLBaPxWRbe2geIevCElLgOK7RaCiKUqlU4pqovrIhfN/+rDOL6WLPsmyappkxpBmG5TiWZVme4/nMf0LGNAVnZF4GCIIiGIqhKIpiGD6mSY39p1QqEQTJmEYJYBeFIIiPM6E79mZ9nXK1Vf3lemBisNoqpA6fYiAIAkWRiXicoiiGYQReQFBEgSsItUqv10trEcgHZUMsGIZtFZXBgF8sbATDsLLLhJgVfKjY7pgURUXCoWg0mpbE4qkyGKOJUollkKkjMl6rkstgjIDpNEVRFElGI2HRSKtWq0kypdFqxP0gucPLuqZ0RIeVqH3bhYgGSyQSNEU1NjXP9re7nI5IOKxUKi0Wi9pqxXGcpul4LObzej0uV1V1tQxNrGVDLAiCtDqdx+PWIQjP80B0je0Nlxup96dvvCYIqWQymUykUimKojAUVanVNpuNIAjgeCkcEQ/DMKBalkrEcVw6nabHiEYBaiqVSsDF5P9ma1fab7agtrG1cmhw0DTLyguJRMLjchIE0dbertFoxMVdpVIZjcbqmppoJOLz+xOJRHV1jUJOels5EQuGYRWhAnF/JEmOE2uFuQCxxpTlvl6CICoqK00m03wlVqAoCuRc9gcClHotuyjDmHaVcTan02mzeRb1AXiedw4PWSyWmtra6YZhtlgMRmPPsWMul7O5Jbu/3CKibJR3AI1WGwwGYRiedOysyLZmSXWsmtrazqVLO5cutVqtpUjXgSH79gtNPz2FOHt8bTLdtxJUMRkNBquqa4rvx8lxXH9fr9FonI5VIlAUXdLRAUGQ1+MWShvjXwDlJLEyq6HW42aFTEMvlmUxDCtscbAW0Wp7eHj44MGDx44dGxwc9Pl8gUAglUqBQHuCIPR6vclkqq6ubmho6Ojo6Orqqq4u5N0jzrARZ9hMP+xi+uKRRw6a7vlcpo9cjGXZWVlEY9EoRZJtbW3Sg06n85VXXnG73UuXLt2wYYO4D0UQxG639/f1mUxmYpY7gwVCmRFLoVCqxvRlUpWxl44Ra5kJwmCIHXtSsXqN9mvNqrVV013OMMz+DA4dOtTb29vf3+9wOJLJPPFSBaDX6+vq6lpbW9vb25ctW/a5z32us7Mz1y6Ft+psT54lVg1FUYwiyeL/6qBXtNSIunXr1pdeegm87u/vf+eddzZv3nzGGWeAIzqdTpHJ75UJseA0M5f23YuIeDwW8Pm0Op1erwdFDbxr/0a+69V9s83yy1WIbtq1JhAI1NXViTk/84hzzz33vffeK3ACz/MDAwOxaNReVWWrKCq5ubfnWEtLi8jXdDr99a9/XbSzALS2tv7Xf/2X+NbjdtPpdG1dIdteyVBmOlamTrqOZVkUQcRZNvzHsur319me+3wWq3ie379//+9+9zufzwe0loVglTTgAoKgP/zhD4cPH5YWBABLVXNzc3NLSyIe7+/tjcezzae54DhOKgWPHj2axSpQ4Uj6VqFUcuxcemYvBMpsKQR7Q41GS6fTYp8P9RfzhCnv37//8ccfD2W8QOedd17JhveXDJqbmzdt2tTQMJkjjyCIMYORkZGhgYGKisqKgg12ERhmGEZcCvMqdtmtWVlWPvX+yo9Y4NH0jXgbm5pyP2IY5v3339+xY0dPT480b6zEGBgYuPXWW7u6utauXXv66adLE1DtdrtGo3G7XOQQWcD4pFAqI+GwrWJ8d2m1Wj//+c9/+OGH0nMuuugi6dtIOCyffoXlR6xkIuEb8QK7VNZHAwMDP/3pTyORyCINLRsHMmhra/vP//xPqXTR6XQdnZ1Dg4PHjh5paW2TFoIXodFoPB6PxWoVhdB3v/tds9n81ltvsSyr1+v/7d/+7ZxzzhHPT2VQIZsEsjIjlt/vC/r99Q0Nlqn9tEdGRl5//fX33nuPnKinJR/09vb++7//+2WXXfaVr3xFGtlXX19PqFQup8NWUWk0mbKWRYPBGPD7A4FA5UQlIxzH//Vf//X6668HCYxZUTd+n08zBrlEDsplSS4GHrd7NBBYunRpFqscDsfdd9/95ptvypBVAOl0+i9/+cu3v/3tgYHJ5FUERe12e3V1tcvpCI1mRwUqlMrGpmavx5P1owiCsFgsWazyer2xeLyppUU+OpZcxjEjvB5PPBZtaZkSJM5x3H//93/fdttt8ln+CoCiqPvvv/+1116Tbk5NZnNra2todDTg92fZzdUaTWVV1bGjR70eT9Y2U3rPocHBgD9QW1cvq8zE8lgKPW5XPBZbumyZ9IkkSfLHP/5xX98MPdlkhVgs9vvf/97hcGzatEk8qDcY6mC4t7cXQeCsUC2r1abV6gYH+kdGRqqqquxVk7ZfjuOcDkcoFFJrNB1LO2XFqvIglt/ni0YizVPlfCAQeOyxx8qLVSJ27twZi8W+9a1vifqTTq9vbWtzOhwohhmNUzYlmdCGJdFoxOf1SomViMcTiUR9Y6NOp5cbq8pgKUwmEsGAv6OzU6r2+ny+TZs2HTp0aFGHdlz4+OOPt2zZIl379Hq9varKOTycmCi7KgLDMIvFmtufV6FUGgxG+ehVUshxTCISicTgQH9tba20dr7f7//FL34hhtqVL3p7e++8886RkcncQ7PZXF1T4/VOq1GVEWRNLK/HXVFRYZFEKEQikdtuu62/f4aG7+WC/v7+p556SnwLw7Ddbler1QN9vcLiWXfnBTIlFs/zTsewQqGQRiOxLPvrX/86lUot6tDmGQcOHHjkkUekP6qqqkoQBL9/+rDYcoBMlfdoNBIJhzuXTulV9Pjjj+/dm52ncPxAUbS9vX358uUtLS319fWVlZVG46Ti4s9YKYeGhvr6+vbt2zc8nL/Y1fHgH//4R11d3TXXXAPeKpXKJR0dhw8dMufYq8oIciQWz/NBf6C+oUEa+/u3v/3tgw8+OP6b22y2rq6uFStWdHR0tLa2NjU11dTUFJ/ll0qlhoaGBgYGjmSwb9++zz777PhH9frrr3d2dq5YsQK8xXHcarMN9vc1t7bJvEXvdJDjoD1ul1KpkAZ/MgwjxrjNGXq9vru7+wtf+MLxxCir1eqlGaxfvx4cicfj77zzznGOLZlM3nvvvU8//bToVLDb7QG/PxwaLTJ+S26QnY6ViMfDoZC01UcqlbrnnntisZljmHKhUqlWr14NMt/VavWaNWtEVgkQxPA8ybIJhoml0xGaDlHUKEUFSTIg+RckyVGKClFUhKZj6XSSYahM6T7RTqDT6b7yla+I33jKKafMbf8vCMKf/vQn8S2Koi2treFQiOPkEmI1K8hOYoVCoyazWRoL0N3dfezYsdneB0XRiy666JprrhGrFwPwEESzbCpDjmLvNU2GggJFVSiqmrpU/ehHP0okEs8888wcFu4dO3Z88YtfbJoIB9LpdCq12uN2lWPvE3mFJpMk6Rwe6ujsFOUKTdO333672+0u/iZVVVVr1qw5++yza2rGAwDHhBPH0RyX5nmWn6ZZ4FwBQxCOIAoUVWT+P/6NguB0Oru7u3fu3DkrP6bVav35z39umCj1HovF+np7QWjN0SOHRSUMFKf0+f1NzS3z+mvmDfJaCp2OYYPRKNWBXnzxxeJZBcPwpZdeumXLlmuvvVZkFcVxQZIM0XRy6hI2XxAgKM3zCYYJ0XSAJOnMygXDcH19/de//vXnnnvu3HPPLf5uwWBQGj6v1+s1Gk0kHJ7vUS84ZLQUJuIxmqLMkrjQ4eHh7du3F3MtiqKrV6++4oor2tvHK6ezPE+xLJnJxl+wIWeDE4QwTWMIQmSWSDRT+GHTpk0XXnjhq6+++umnnxZzk3fffXf9+vXi09XY1NTb01N2mpaMiBWNRg0Gg1o92TLuvffeKzK8eNOmTWvWrBHfJhgmyTCLlbvJ8nwiI8P0CoU6UwlieQZvvfXWb3/72xndNU6n8+233163bh14q1QqVWo1KFpRRpDLUigIQiIer62bbFzLMExWiHderFy58pe//CVglQBBJMsGSTKxeKySIpZOj1IUNSFs1q1bd++994oytQBeeOEFqWZmNBqDgQBfVkJLLsQKh0KZci+Thsq33347EAgUvuriiy/+4Q9/WF8/nkkXoahoOs3KJs0cylg0IjQdpmkwpqVLl/7sZz+bUetKpVKffPKJ+NaQ6ay5iLkhc4AsiMXzvN83otNPFqtNpVIvv/xygUtQFP3Wt761ceNGoIuQHDemOMt16mmOG6UoekLkfOc735EmyOfFnj17xNcYhtnKrWCpLIhFkSTDMHoJsQ4dOlTAIorj+AMPPHDppZeCtwmGidJ0KZX0OYDl+TBNJzNJpwRBXH311TfccEOB8z/99FOpwp7piVJOXcEWjVg8z5EkGY/HY9FoKBxSKBRSz2ABBxyO49/73veApiJAUISmEzkpwrJFPGPlB5VR165de+ONN2ry5X4BA94bb7whvkVRVLqtkT8WYVfIMIzfNxIJh6VKQ01trfSJPHz4cN5rURS9//77lyxZAmzoIYpi5br8TYcUywqCYMiUmbzooos4jnv66afznrl169bLL79cnJbcovByjtkqKbGYdDoQ8Mfjca1WW1dfr1KpcBwHnjWpf210dNThyFPOGoKgb3zjG4BVAgRFabrsWAVAchxE0zqFAoHhtWvXRiKRrVu35urmiURiYGCgpWXcti4NeAcdNxEEOXL4kMVqtdlk1z6zdMQSBGFoaJBj2bb29sJ663vvvZfX2HPBBReIMQUhipqFs09+IDkOzhi6MAy77rrrfD5fd3d37ml9fX0isbJ826B+ZCqV6u/ryySbtJaislzRKJGOxaTTfb09KoJYtnx5YVYJgvDuu+/mHu/q6rrxxhvB61g6XdasAkhlAivA6w0bNuTd9w0ODha+iVqtbmtvR1HU5XTIp5xf6YgVCAQ4lm1obJwxpCQUCnm93tzjX/va18ATSXFcqvxzDQASmSAcCIIqKioeeOCB3Ji+6VQCKQiCWLJkCU3To8EZzH6lRCmWQo7j4rFoW3u7lFV79+59++23h4aGQEE9BEGeeeYZpVLpcmUXhwWsAkUT0zwfXZgaV4uFOMMoMAzJxDWsW7du27Zt0k+ls/Hggw8ePnwYQZAxKdXWdvHFF0uDHex2u2N4WKeXS8+LUkis0GhQrVZLV8De3t6HH354z549oOBnKpWyWq1gRnLFVWdn51VXXQVeL6IHcIHACUJkom7blVdemaWDJxIJsbqaXq9PpVKJRMLv9//jH//48Y9//PHHk+1bQe2d3JzExUIpiBUJR1QSGwxFUQ8++GCWu76rqwu8yM1Oufjii8ELkmXpsvKXFYl0JpAV+ARvuummrE8PHDgAXlRWZscov/766+JrBEFMZjNFyaUsSimIRVGkNOM0GAyKPZ5FiK7ZYHBK3RWz2Xz22WeDJzta/kmq00HUGi+88MKsSsli9GxWjR1QD0z6VqPRyCfTtUTKu1TC59bShCBIjMcNS4LaYBjevHnzuDdQNlO2EGAy0WPg9Re+8AXpR2J9itxCc1klVcdUWNkoCqUiVsFPMQyrmrD+SYVZU1OTuERSJzSxxn74hDw+88wzpcc9Hg+wneYSS86QhRNa6i+LS9TP0047DbygOU5WwTALASFjSQGmh89//vOTxwUhkUhkzZL8IYsIUumUScv5L1u2DLyIF+dmjsWi7+54NxAMNDU2nXPOGiWxaBtvgRc+++zA3o8/VioVa85ZU1dfVO11muOIzLp/9dVXS4McQW3Ik8SaNUS/PcMwovpJEARQY5lMak3hO6RSqRde+MO2N7bFJ4JtKioqNmy4/vLLv1R6R8fhw4efeOKxI0eOgLfPP/+7M888c+PGG2tqZuiKk57Y8zY0NFRXV4uGBlBHnsg4B8sl3E8WS6Fo05Oug6eeeioIpCnGe7N165//+MeXAKvMZvNDD/2sq6vr0Ud/uXPnzoUceB643e5bbrlJZNUll6y79db/+Pvf//7444/PeC0nCGJUWXPzZFtDsN1BEKSwN0xWkAWxxD2jdLcMrAwgRK7w5QIvvPnmZDLP+edfcOaZZ1133fUQBEmPlwZvvfmm6LMzGI133fX9Sy+99MILL9y7d4/ItgIQN7/1ktVTLAYmtdrIHLIgllhTRWqJEDX3GYnlcruk5ct27d7lcXvefXcHBEE9PbNOoT5OHJN8YzQS+eNLLx0+fOj999/nOO6vf31rxsvFzIuqqjytpsqo+IwsdCzxERcnzmg0iq9njDnOMue4Xa6v/X8bwOvSGww5bso3PvPsZBBfMZ18QKI2nM8cWuQdZAJZSCxxvkRRL+1Eys9ErOam5umUj6qqQr0FFwIFvvG0U08r5g5APZfOgDgtc6uMsihYBIml0+lE9x+AGIok7qhFogjQzMZkBEXWnHPu397+a+5H555buvZME9947vbtb+SGRjU0NBQ5GB6CUMkMAAMyCBLJmjdZRfZlYRGIZbVaN27cmPcjHMcJgqAoStwnziiuAL797e/s/r+7slyQHR0dGzZsmNXYaJp+Y9u2d3a87XA6bVbbeeedd83V16hmk8WwatXqTbdsfvyJx7K4dfNNt+CKojQkcKE0+gWYY1AUnW7eZAhZ6FhSaLVaiqJmW8bOYrW88IcXt72x7cD+/clU0mg0rlq1+ovrvogWfR8Qufq73z0n1iBJJhLPPz/4zjtv33bbf5xyyqnFD+YrV15ZU1vT3f2e2+PBELSltfWSiy9pbpldWRhp7FpuGoX8sQjEOnTo0GOPPSY9gqLor3/9a/DaaDQGg0FR6S4+Q0Cr01133YbrrpudiBLxyScf//Sn9+ced7lct91268t/+rPY4a0YrF59xurVZ8xtJMD4Igo8giAAsfbv3y/OEgCO40888cTcvmWhsQjESqfTubnzAwMDwCRosVj6+vrEnqVIqZJPdu3aVeDTnt6eWRHr+CH2ZmptbQUv3G531rzJ2fogi12hNJGwIvP3A25XgNJwSzd9C0mFQrF8+YoSjAEA/F5xBsT446xINZmjFMSCYZiTGDnzmgbEOElgGBwdHc0eoiBALCuw7HSFG48Tl1/+pdNOOz33eGVl5RNP/EossTf/4DiBYaCJ+YEhCM0QCzQdBkVNwQvQ2VqKrNxonuPkk11YCmIRKpXUpN7c3Jzrmti3bx8IVgaujFQqJc4jhiB8PMa4hhnXEOsaYhwDXHh03gdpMpl+8YtHpD1LAe688662tpkLD80BAkWyHifjHGTdw4xjgPV5BYYRi02CEG2NRiMuhblpJlmxpslUCsPlshsrBbHMZot0aVMqlffee6+02jYw0oCJq6urA+YZMW4Ejse4UT8kWrQFgY+GGdeQQM5/i4q77vrBDTd8U6fTZ4J2lj/55FOnFmfVnBUEnuNGA6zPI6QnLekCmWS9TlGYO51OCIIaGxvB22QyKXVbAWVUzDEBPoZIOKxSyaW+Q0mIZbGQJCnq48DC9NBDD51xxhlSswJIztTpdKeeeiooIQyOK/Ja1VmWDfrmfVnUaDTf+MYNN998cybd6qGOjs75vT8AH43w8Wju4GEIUk2Yr0A8uyiTPvroI1HqwzB80UUXPfXUU6DaAEAkEuF5XloKanFRIslpMVv6envb2tqUEyyxWCx33XUXwzC5rvvLL798z549Ho/H7XbX1NQoVWoYQfIUwOA4LuhDbfPfXhvsthaqXRvP8/H8nhmletzxQJIkIJaYY7JmzZqzzjpr/DSlMsvOl06n/T5fbX29fNpYlGhXaKusRBBkKKcRDY7jmgmIm+fly5eDVCeg0SMoqrfm3+rzyQRUbrHwfCIO8fmT2FTacXnz9ttvg7ZNYsi/QqEQJyqXVUcOH1ap1SaTeeGHXyxKl6UD2sIcOnQoNDo6Y5WBlStXgmxp8FZrtqJYfpuNMFdiPfPMb3bvLmS7mg4+n+/Xv/rVnP3B/DSpfzCCqDK6XTKZfPXVVyEIuvTSSwvXxBpTB4LBvt5evcFoL7m7vTBKZ8dCUbS+odFisQ4PDx/Yv983MpI3Dwxg1apVoKodMN4gCKI2GOd5QAL0q1//qpCWNs1HL774whvbtx3HopP/tsYKO5qR2Z988kksFlMoFN/4xjemuwVN016v9/ChQ47hYVtFZW1dnXwWQQD0R/fcU8rvU6vVBqMJx/FEMuH3+30+nz+DEa9XgeOiu9dsNu/atSsWix05cuTcc89FURRTKFKRSK6oQ0xmeE7K0MqVp+zeteuN7du6uj4ntY4ODw8/++wzKZJ0u91dK1YQkjqDyWTy979//qNdH/3857+omHPvJF4QyGTWMYVKba4ej4h//vnnfT7fmWeeKcbQCoLQc+yYx+MBcxXw+yPhsakwmcy1dXVqWSZZLILlXalUWm22hsam9iUdHZ1LwT+L1SpNVVUqlaDPe19f3+7du8d2GQqltS67pQys1sLoHJ9UFEV/8P27nQ7nbbfdevDgZxkDI//SSy/ecMO/GI3GV7a+2tvb89Wrr9r2+utAdI14vXfc8R8vvfTi7bfd3nwcjUYQnQ7KeRJEJfKTTz7Zv38/CL8RP00kEslksrGxCczVks6lbUuWjIl/qxWTq1dHLr10OI7r6+1paWmRViK9//77P/3005aWlgceeADsGcNeVyI8bpKGMByvqoWOLyYpkUj88Y9/7O7emUymIEhobGw8d815F110kUarDYVG33rrrQ8//NDlciIIgmH4qlWrrr322vrjbpnERUJ8JCS+1VsrDBV2kJv6/e9/P5FILFmy5L777hO3yY7hYYqiG5ub5WNYnxFyIRYEQV63O5GIL53IJYQgaPfu3Q8//DB4fL/73e+Ckrgj/T3cmHIGY1U1sLJsslamQuCCAT4xpv6r9AZr7ThTf/WrX+3YsQPH8WeffVZcnXmeP/jZZ+1LOooPAZID5OKEHtNezSaKoqQdGU477TSQb97d3Q2aTSIIWtnURlgrsNqGsmXV2POMWivQCjthNBsrx5Mm/vrXv4JqkevWrRNZJQjC4MCAVqcvL1bJi1gqldpWURGQlDHCMOyOO+4Azp/f/va3IGgExTCzrRKRq25RPJRava26FsMVwLDym9/8hmVZFEWlbTVj0TFYprq/ygIyIhYEQZX2KoZhg5KoIxiGr7/+epANfMcdd4DoGhSGbQShXCDLeElAoKhxwnvT09Pz7LPPgi3zfffdJ+3c6fP5bLYKqd5ZLpDX3waGYWuFzeFwkKlJB/N55513wQUXgByVRx55BFgmERg2EYSq3BYIAC2OG5VKEB5z7Nix73//+yCWYf369Usljfu9Xi/Hcfbq6jLS2UXIi1iZhkRGvcEgli0AuPHGG0H+ajgcvuWWW8RoT4NCYVAo0PKZdxxBjEqlNrOO8zz/4YcfPvLII+CjVatWXX755eKZsVjM6/FUVM6/J7Q0kNGuUIqeo0fNZlNV9aSbIhwO33zzzSBEAkGQjRs3rl27Vvw0StOk7KtIqjFMLwlEe+21137/+9+D152dnQ888ID05COHD2u02qrqmpIPc35Qast7kVAoFC6nU0kQonqhUqnOPvvsgwcPRqNRQRD27Nnj9XpbWlpAKiKBYXhG5ZJhGS0YglQYpsdx9cSGw+l0Pvfcc9u3bweOhPr6+s2bN4tBqhzHDQ0OwjBcW1dfjosggEwlVqYkbtjjdi1bvlzqBXO73bfeeutkDg8M33nnnWecMZkPwwtChKbTsqn1o0RR/dTFet++fVu2bBHLgNXX12/ZskUaouN2u/0+X3tHZxmVAMmFfImV8aJ4opFIc3Oz1B3m9/sfffRRsXILhmGnn376unXrxAiT8ZKeHJfmuMVqYIEjiBJFlSiKTzCG47jPPvts+/btYsgGCBDauHFj9cSKLwhCwO8PBAJ1DY3luBOUQtbEEgTBMTRIp9NLly6VLgokSd5zzz39/f3Sk1euXLlx48aKqUlaLM8nWZZi2ZItkGoM0+I4klOufcuWLVnNxtesWfO9731PeiTg9zudzoamZr1sAkHnDFkTC3DL5XKSqVRjY6O0ViLLslu3bn3llVek9eLVavUpp5xy1llnnXrqqdJcIB6C2Iz0YnmeFQRQ0WVegMAwCsMYgmAwjCOIYqrjMh6P79+//6OPPtqzZ4+07o1er7/iiivWrVsniiWe54OBMVRWVRnmPUBoMSB3YgFuDfT3Men0CsliB+B2u++9915prhgAiqJXXXXVlVdeOZ2awvJ8mucZjmMyPJvVeDAEUSAIllnsprN0RKPRbdu2vfnmm6lUdsaHWq3+yU9+IpYfB/D5fG6Xq66hwWgsp9LIBVAGxPL7RgJ+f31Dg7Syj4hAILBt27adO3dKE4EAMAxbsmRJR0dHW1tbc3OzxWKZbpPFCwKf2aGBGiTj8kwQQLr7+D8YRjL/phtnIBAYHBzs6ek5duxYX19fbi0rlUq1fv36L3/5y7n6E8MwHrc7mUzW1NWp1XKMr5otZE0sQRDcLmc8FuvonLJFEgThhRdeuPTSS8XqZG63+2c/+5lYzyMvqqurzzzzzNWrV4sZCscPlmX7+/t3ZZCbUCrFihUr7r77brGGTDKZ3LdvnxjKB+B2uXw+X2NzS4G07HKBrInlcjpSyWRDY6O03ApN00899VR3d7fNZlu/fv35558PPuV5fvfu3Tt37jxw4EC6YHMUHMcrKyutVqvZbDYajboM1Gq1SqVSZIAgiFiZg+O4dAYkSYIeSbFYLBKJjGYQCAQKfxeCIGecccYFF1zQ1dUFskVSqdS2bdtee+21dDp9ySWXXHfddeKv43k+EAgETwhNS77EioRDfp9v2fLl0oOJROKuu+6Sdgirra29++677fZJ18fw8PDTTz9dTCXZhcbpp59+yy23SLd4Bw8efPDBB6UplmedddYdd9whvSoQCDgdjiUdnQp5NIibG+RLrJ6jRy0Ws7QRss/ne/TRR48ePZp1JgzDZ5999gUXXLBs2TLRmjowMADCfI8cOVLK2ugEQXR0dHR1dZ122mm1kg7qe/fu3bFjx8cff5xbFrWrq+s73/mOWM2W47jPDhyorqk15dMpywXyjQ7gOBaZuntPp9N5W9kKgvBBBp2dnZs3bwY5ic0ZfPWrX6Vp+o033nj99ddzW47NL6qqqi677LLzzjsvK2fryJEjjz/+eFaCvBQHDhyIx+MisTJ7TbhcGgVMB/lKLN/ICJlKtra1SbdyH3zwweOPP164FvKKFStWrVq1cuXK2topnSDcbvfAwIDT6XS5XCMjI36/P9cWUDy0Wm1lZaXdbq/LoLm52WaziZ4ZnucdDsfHGfT29nLTO8itVuvmzZuXS1b8SCQy0N/f0tZeOKlQ5pAvsSAI6us5plAoWibKrQD09PTcc889hVVmgPb29muvvVYsA5SLQCAwMDAwODjo8Xi8Xm84HI7FYrmsxTDMYDBYLJaqqqrq6uqmpqaWlpbpenGxLLt3796XX355aGiomN/4k5/8ZJkkzF8QhEMHDxpN5kp7uQbMAMiaWGQqNTQ4aLGYa6bKnj179jz55JPS6PgCMBqN7e3tLS0tTU1N9fX1Vqu1cFGGdDotCALLsjAMYxiWyc+ZQWHwer0Oh2NgYKC/v7+vr6/IJOn6+vqbbrpJavugKGqgv1+lVtfWFdXUSc6QNbGAAOg5esRms1XXTIlMApHKhQ1XeWEwGFZm0NHRkdsMt3h4PJ7Dhw/v27fv008/Fcs6Fg+r1frwww9nib2jmX1GS1v7QtUjKSHkTizgcXM5hi1Wa81Ubvn9/j//+c/vv/9+gVT9wiAIwpiBVqvVaDQqlUqZAZBVfAaiHSuVSiWTyXg8Ho1Gw+FwMWtxXsAwvH79+g0bNki9mRRFDQ0OYhhe19BwArCqPIgF5FbvsaMarbY5J2mzu7v70UcfXbyhzQ46ne4HP/hBR0eH9CDP80cOH0YQtLm19cRgVdkQC+hbLpdTqVDU1ddnuZbdbvcrr7zS3d09YxGbRYRarT7nnHO+9KUvZXVfikYiDodDpzdU19SUb7xoLsqGWABDAwOJRLx9yZLcdqMul+vBBx8sYC5aRNhsth/+8If1OX1WA36/y+WyV1VbJ5q+nDAoM2JxHBcMBCKRsMVisdlsWfu1RCKxa9eunTt3ysGfA+wUK1asOP/8888666ysvjc0TXvc7kQiUV1Toy9zt2BelBmxAFLJ5EB/H0EQ7UuW5G1U1Nvb++STTxZpSVogNDc333TTTdJGqSLC4XAmcV7X2FROdT5mhbIkFlDn/T5fJByyWK2VlZW5PRoYhunp6QHuwuHh4QK273kEDMNtbW2nZJA3OCeRSPh9PpIkLVabyWw+YVT1XJQrsQBYhhkc6Kcoqq6+3ja9mjIyMrJt27bu7m5pi/z5BUEQl1122RVXXDFdQyWWZV0uV2h01GAw1kyUHD+BUd7EAlpXNBoJZ+qaWiwWk9k8XYcZmqZdLtfAwIDL5XI6nV6vNxQKzc0GhuO4zWarqqqqqampr69vbm6ur6+fTvykkslwOByJRAhCZbZYtOUfxFcMyp5YIqKRiMfjZhmm0m6vLq7eAcMwDoejv7/f4XC43e5gMBgOh3M901qt1mQyWSyWurq6+vr6lpYWsa5/YdAU5XS5YtEoQRC1dfWz6ntY7jhxiAWkVzwWi0YjqWRSq9Pp9XqdVqucpqtvAQCruiAIMAzjOD4r/ZrneZIk4/F4LBplGEaj1RoMxn8SKSXFCUUsEYIg+EZGggG/IAgajaaisnK6YIR5BMMw4VDI7/en02mFQlFptxuMphN10zcjTkxiAfA8n0wmkolkKpWkKYrIVILI/EcolMrjTGDneT6dTtM0TWXauZCpFMdxhEqlVmu0Wi2hUv3TUgrgRCZWFuKZJIh4LApMDwiCaLVakEOhUqtxHC+8U2NZlqZpMpUiSTKZSpGpFPAgKRRKg8FgNJsIoryT4ucX/0TEAhAEAUQrMGk6nWZYlmEZlmVZjuekHQNgGJZ6HoUMEVEUxcaA4ziGg4QehVLObU4XEf90xDqJ0uCEtfyexOLiJLFOYkHw/wIAAP//ucYjXoPBSrEAAAAASUVORK5CYII=;imageBorder=#808080;rounded=0;imageBackground=#FFFFFF;fillStyle=solid;fontColor=#000000;" vertex="1" parent="1">
          <mxGeometry x="300" y="215" width="100" height="100" as="geometry" />
        </mxCell>
        <mxCell id="Aq05t7c2WjxG7eI3XZw3-3" value="Nessie&#xa;Catalog&#xa;Iceberg" style="shape=image;verticalLabelPosition=middle;labelBackgroundColor=none;verticalAlign=middle;aspect=fixed;imageAspect=0;image=data:image/png,iVBORw0KGgoAAAANSUhEUgAAAMgAAADIEAYAAAD9yHLdAABMEUlEQVR4nOyddVxUWRvHnwmG7gbFBAULO9C1u2PXeNXdVVfXtWvVVddYu7t17e7uXBsLFFsRAxGke+K+n3vOGVAYEIbhDvF8//A3c86de59BuM895zznecSAIAiCIFqADgRBEATRCnQgCIIgiFagA0EQBEG0Ah0IgiAIohXoQBAEQRCtQAeCIAiCaAU6EARBEEQr0IEguYDRZX1bgCAIguRNSjCJpyoNo2rhTzXWm+rQ+Mw/L3bOVSsRBEGQvEabFVQ5juq6plSHLf22PW4ZVYNEqlWrUb13jWr4PKpO7oKYjSCITpHq2wAkL1M1kmrt41RXnKBaxvDb4+qwqdDwNJ83GUy1xQyqR+6kOaAOleiK7H1zHRmOIAiC6AfjWVSTSlNVjyju/kl1y7lv29X67wDN7W8/a27/+RDVVq+oDnWiKimXC18KQRAEyX1E+6g+7EU17Y0/I1U9ytpx92ZSfTRYc7/LzFz4UgiCIEjuIYmi6uFCtc//qEYFUc2qI9FWR47MhS+FIAiC5B5iNmX1sgrV3HYUaXXOkFz4UgiC5DK4DwQBgCIBVIv9Kux1oztRDX9HtTtbnDf9W1g7EARBkO9QZDLVqSyaKpA9QAg94viezojTxbdFEARBsk1VD6oz2WK0nxvVjG/cNX62uGXWguOGB7gdcv6b4ypHma8wbcFx4v1wBtbpzkEYjhDLRAc4zsXfsLXMkuPMp0j2SczU/UoWfdV2rK5/IgiCIIhG6rApqJsOVDO+gRv/J94lrsZx/aNdOcdGHOd3vHa7Sus4LiKiYcMaNTjuQNdKf5Tpl/5z7nVNihsN5LjOpR3W29z8vqOofsNik5kHxzm3kAUanEjfv3RIGb8S9hwXOKueVZWzHPeDn7W9RWV1/+5tVEXrcufnhSAIUmgpzVKBHFVSzfhG3lBhHW3xieOW/1d2TIn1HPe2Vr0GVd6lOoyQ2/VXVPPjuDGXi8tc1nGcSUXxNXFbjmtwzHqNxUaO29+mUokyZTguvFqDm9X9OK59H/uV1hGp56/UweyVySGOq13FcqFZWGp77WWWu8zFHBfYoi5XZR/H9b3tWsphfnr7fpnn0sj+Acd9ulO/fbU1HDfrXek4t6McB/8DJ7DzfwwyEIGo7EShfrIIgiAFnFtHqKa/IVfdZ2Fuuo/j/CrV9qw0KdVRZKQ/Ozq/tJ+Y+vlfj7gsdbDJ+PiWDW3DrL5yBAPiizRznMRxz0U+rSo35DhZc9Fx0SCOM34rPiT2Sf/5l/K6zpW/cNxMq9Jj3FqlnsfrmOkG4x0cF9i0rop3OGecqqz3MuM4y5HSqpJJ718YWIt+FbkXayD4jxpBkAzBKKx8RYvZVGu0TdtTqorxUsMYgEPLKl0quw+g6CUjJ8PT6c/A9eIWcpsBxvV78fRtSYDNIcGlQ6cD9Et0/dPhAcDcWh6rivlkbMHIlcW9XN4DzDApXdHNEmDs9uJNXO8B2IfLEgziAE7Mq7Ld8weAw1O9oezb9J+3jTUoa9ASYOCbor5OYQAnnlQ+49keIH6P0lu1B6CHp//HF7MAKtiZNTapBHBgU6VaZXxcS7tsMKwrkzwsLboEf8FvHTfl7OeIIIguEOnbACQ7zLahOvZL2p4/5hZJcrIBmPGbewu30hmfYU+bT4PCfgcYcO1Jl9d9ADxEJj8arQS4FV4zrKIeb8vywaoJqvMAdSrfrvaoHUDlEha9TF0A1jbyii31AiA6WlFB6Q/wQ8c7Fo8kAG/vJU5Pim3Pwn+PuOnPcgQpvOAIJF+h2ppRz+2D0T4xZwCgLdyHJxo+2Z9rzQ0EmNX1TaUP51PbSw8zCTHKZMQhFAbLxTPEjQGmfiplWbQ4wN7OIUe/bAf44J44OOkYgIWF1F9SAWB7bIWX7k0BzE5IxojfHC5KP93YXt/2I0hhBB1IvuJsSEY9vjeifeOqAVwdFjErumP6/ufO8YcShwMEDk10T9qe2h5TTvGP0iW37M0+ZZxNtxgHpL6/7xlzKi4x9X25W2YhJh8ApopL2bt5qFtnrxHaTgRB0IHkMy5ZUg3onNERf65/3uvtWYBoW0WU4qspKUkr0Ue4kP74Oz9HH4orAhDfWumgXJ4rRmeJgOjYxfGTAWaNfhP9fm5qu+Ik5wqN0h/fzdkp3vaT+l015jK93whiLIIgBHQg+QqOOY7RERkd8fR0vFlCMED7mQ9ET0sAxIgVY5VWAIryXBxXEsDWw6C69Cv3kyhTLVIlAawIfff2032A0BnJZeXuANHDFSaK4wDJPVSVVZNz7xv5Vo/aFmsD4FPsTqVHrQH2c5+HhNf//ueeLIg7k7AlbWs7eS6ZiSCIBnARPX/CHP+Pg6guH0fVIdcno4reN3KVnQMoPd94r5ERgNsK446GIQCVy5o7m74FcIs38jC8BlBxstl2k6kANnEGQVJLANEQUT/RV44reZWqoWoBQN0Zd5Y8WgfwIi7+S2I6hwAw6kGxyS5eAO4yExuj3gAPYmPC49wBtncLtg1tBRDzWjlUZaw+uk4lqjf8cvvngCAIUkCw9qW66Eeq+s5llapGq8U/iaI4rtE9m3KWThw3cFCRvY4POa71dbt11m66us6Fm9n8gSEIgiDfIq5NNYiVKta/A8ldPceSQpaIzNrPB0EQBEkLS/UxnyUh5G+wdaDGLF6lPaXO+r7RZ0dNtpuIeS3xS7FfMzpuA5a8RZA8AK6BFAimFQEwn2i2f9I7gP72v5Cw12oOlYkm1Ewk+z6emD+bymvo6LCLvAbZvieVyKOqR5NK5JENokg5qY/Rn8hxCWUSNERtpcdoiZEFr86/Or7g1crY0o5XUzuT8by6xDn9zqtNb5sm5Pg9htV4NXtgZkaOr29BJt4sH1i+Jp9bb5LEq6i4iMSc3X384COvK4+sJ+/j/RKGqq89n+11H3uSqmpgTn+SCIJkHXQg+ZruPQDsDtmO2rEd4B/HCT/wbVaBlmG6OLdyqpLcluN9Eh7ymnQxqQKvktoSI15NZ5o+5lV23WCoLq73PT7aftrM66Tm0z2JXVxCyu6PMSx77/xeQliCIAgFHUi+pOoAAEl/SRXf1QAzJJPIk3yxH4r+zKvSQ0nq/Plevk+ez79sD7/PqzmY1eK1ersqZP+2kYfRbn1+B23xNblPNhAuaL+8nrotZgLV1iz9+9VQPRmHIIUKdCD5kn0BAF2NOvp19gTo8G+bO9/0TTu8hNf9T45oDGatkliJ3F7HHBx6RCBzc4Vzxpdced3QYWsLdVsSS3NfpDLVsIN6Mg5BCgUSfRuAZAfr0wDGh42LrJ0LMGLSoMPSrgCSYMk3uawkvaR7eK1VpTpZW+hWq/NwXhXGymu8+va/T9YsOnRobZSVayqDlNa8njx1thSvu7kDdXm9EHilN6/ys3JbXktVLiFoRqqSocVJKsWgGu9JJfWPl4KfS4fTPsueVI+phLQIQQobOALJVwwfCFClU6X2i1YCjPlxaDttzpHQLZEsnhvvMiqVleOvuF9/xuuqahtIihHxbTFJkaKqofrl6+PWRy+bz6vpcRNrbezSlk/1P+/jdYTL+JNp+4qzsOa3uE8EQXIBHIHkK377GaDKTG+oXAOgoqIcGXn4rrp/hte1czeTtY3tcXtJ1NOd8vfoknJTrjsvJeoUJ9FYBm+krtm5pmUji268eqo8SDL5gd37zeG1SXQD4kBcDjmv4tXjcikZryKlKF6X3/l7mL019eJVEi0h2ykfv34ao+7zZrnDNquX+f8V0jIEKejgCCRfcaUqwM+Tu9+o5wvQMKIeWTzvf28YSeWR/J88kzogAE1NGpDkg328etE1g1EwRBCjBYIbzZER0O8XR9zlNdojxkTdV4WtktzXUGILQRBtwWSK+QpJPIConog8cT+884g8T3/Pcag5G3+J7PfYZL6d3GC5o9wNTcdFOkSRG+/lsGtHed0l2U9uv8dqnb7M6+e+oVnaHyI0ovmi0bzWLV9rc9q+AS/0YhKCFHBwBJKv2BkC0KVIe9tuDgBej8o25tumWc3Zo825ik9xW8BrA+O6ZGNfcHgImeg5d+USWfNQ3lAmavqcbQMbZ14XfJpOUjgaTjY00/4b6R5/aQBJcDLzxwX70/bZ7KAa8T/h7UKQggeOQPIVz7YBvHN5/4h/7XGk1AhebVTWWj1fB04JGsXrprE7SPr003POkw2DGTkONV8uhQfzurnqzkBtrpvbeK7yKMurwQSDMmn70i+zIwiiPehA8hU7ywM8+eM5GSFIrkpW89rlRvur+rDlTsK9LE2dCY30N2lJXstHeqaLUvvdiaroN+HtQpCCh1TfBiDZ4dl6gOhfYho8HQHwX/cboWUfAzQcX68932dqYtKU17WfNycCOM6Rj0y2AxhWwa2esxuATXmDKGkRgBhH5SSlPcC60e/7hFgAPF8WvyCxkza2FA12Lc9evtTld9QVpbgSZKR0H1L3U5rPo1qSub5X+jENQQoIOALJX+yl8m9xgDV/byIFmOLkcSQTVI0NVUm47RjrIW4AIWOTreRuACsmvrvy6QRA0b5Gp2QDAYy6i0G8G6DIPKOrhqMAxgYUX+VqC7BtSPmT7h4AK16VvVLiJUBRe8NPsqWZmdLsUOMxQnxlbalWt3KG4cpV6wprC4IUTHAfSL4kYDKAaoXqTPeWAME7Q4pYjgKodbn6Z77P7g9bksij0ZcfxAAxwWFzw4sA7Hh9p9fDtgDhIE9UdAJoJrf9zaoqQEkzk82GKwDM90qjJa8AxBtF96AhgBeYhZlMArhXMiYyri5AQrDqvYokT2xYqh65/bZ3akWXog3AQK8/jAywmG1+idcjY06SBCeqM6qUAcd55vruhuvNPAQpAGAUVr6mtCFVv38AKn+qGGo8BmCUxRBSLUNyWDzr62Pf//ahCK9bZu4qxqv/0ICyWbmGxWRzEhbbY8iP5HGj/kwfGv5bHaro+OvkChOXTJ/C66ubb96p26azuLVJXfVnF4Lkf9CBFAg6BVPdUgXAa34ZzvQjQM8jXavzbSUGFvu2SgYHpCxT/LL4qry+dg8kaxkxA+KIQxE9hdu8Ol1z7MFr0buuJNeVZJyksbDfSjcsmLecjDd8791PGW9sG0y11wr92YUg+R90IAWK4geoXmIjk2KtAJp1bkRSnPQY/SPZsW4YKBsrpE2K1QoSZhxw/FlFXv2mPmrNa9UelZvz6vnUI1djopZ5rCUrR9er3jqlbjuQTLWzYW5eGUEKOhiFVaAIZPFU1dmNcdQ+gDP7L7zrFwxwbtmlM7a/AXjXrFCD76twoZwVr042DmQxvqh7kf68mv9qupVXabSUVhyX0FALZXUlyX2V8C5xGK9hG7+QqawQ/1ByvshVkct4fd3x7U+kvdRnMnX0+sdA4iiUUmVDcrpTksm8OvZ1IEG1nmM8cvVnYlHWvD17meJADJfk6iURpJCAI5BCgel4qkP/oTq4GlWX+7l7XVUzqpHjqNo0Ali1ayFxNFacpUnuXp2y2/oACW8+1OK4m7rtDJuMa54nk7IgSH4BRyCFgji2nD6L6Ry2H8KDOZCqbO95kRCqpe9Stayo+XzxbNAQdIXqO7ZlL5ylZ7zHRkCBbEptjTfV314CGJw2oFU7msFaXXy37yEeL+6bto1TJzkRNPE8ghQ00IEUSlQsjPUpfKtak1FV9H1U3nZLbUoalkRSsZg+Mbme08tmBYWvUklefBWyrtBq6ySCIN+CGwkRAZD7p75OOJvYSshrJygTZqVtS5orpAUIUlBBB4IIgNGB1NecP/dByGvHVoiNTtsWh9FXCKID0IEgAuBgnvpa5mlwW8hrK2IU6TY8PqsnpAUIUlBBB4IIgGOT1NfGC4wEib5Sk+CeuC9tW5CdkBYgSEEFHQgiALKk1NdGA40+CXntzyPDzqVte7NLSAsQpKCCDgQRAMvmABANJBeVwUuDTLP86grVHNVBXj+3D92btu9+sBAWIEhBBx0IIgAlRgKUvlhyPXnTDloKcc2gJe+7pG0LYFNpcb2FsABBCjroQJBcRELz9oJbKYCSB4prVbtdW+70u7cmbdsxJXsRKaQlCFJQQQeC5CJlNqa+dvrB4ZaQ1w4Y+CzdRNVepZAWIEhBBx0Ikou0CUl9XaWWd00hrpn0V9IXXp+OfB6obotilU98001qIQiiPehAkFykcksA4x5Gd/jXDqvs2ghxzYDAp/3Ttl1UF44aJoQFCFJYwFxYSC4gYmsMnY0B3FuUMiNtBqIsVUDMKQHbntOsu/9LbTvrLcSVEaSwgSMQJBcoF0rVQAZQsmmJWkJe+9HhgG5p2y6XE9ICBCksoANBcoGaP6S+LmNXOt1GvtwgLOkLKc0buCcoJU38CzbCfizI6guCFDbQgSC5QKPNAIZnDEnZJq8NZYoLcc1D946vS9s251f2AsN2ESQXQAeC6BKWIqT5DID6xj7EgcgsZUdy85KJDZJO8np+6eX16raYSVQ3DcnNKyNIYQcdCKJD2nhStb0E0Lp5s0dCXPN2W99ladsOhlFVVhLCAgQprKADQXTI+KYA5cqVXcG/dthg31iIa147eDtd4d29MUJcGUEKOxjGi+iASizbbh0ZgE+nWtdYc646kJBJnz/y+sgtICU9/HvmSs4E5OaVEQSh4AgEySm7YOOvgQCyhTIv/m3dGbVihbjsHteD9XlVXVC9VbdNZjtNkjFlCYIIADoQREtMjplY2R4DkEglAb3GAPQx7FmGbzfYbtA+N6/7YezHorxev3w7JVj4dUOqm8fl5pURBPkWdCCIlpSP9Gy3djdAEW+XKTaHAerb+AiSquSCxxWntG2bvKgqqwphAYIgFHQgSDbxOVerbOtmALd73t3SaQtApxFtFwtx3aSdSY68/lfv5kN1m5wliN+8XQgLEAT5FnQgSBbxfFmmB2wGSKybeHSBMUDFfuU28O01OlS1FOL6+8OPkNy+0ZNjeqnbFs6hGhQlhAUIgnwLOhDke1SEctY/A7w9GLT4zA6AoN/e+5Q5BDB00u80XboJmOTm5T9PC33B6/FxZ8LVbR83UZ0miOtCEEQz6ECQzOgEAH7weGs8QPyYBIempwD6fO5JsuuaXjcRJEXJmYoXevKqaqMao25bw4rixl8UwgIEQTSDDgTRgKUZ1cMsqqn1HoC2i1uQHLveVSt0FMKG2HWx3Xm9HHftrLotYhXVNaFCWIAgSOagA0E0sCqOarvqAB7y0jv41z0cf6Q5rSqAlxA2bPp1pwuvscfiRqjbxrBF85AKQliAIEjmoANBAMDgCdW1O6h2VwEYTjYk45B+q3pvEtKWl9tekyira71upuTQvc8cx8Y/hLQEQZDMQQeCAMD036j+1j21beD8Pq14LWrv2lVIWw4NO55uN8c/d6lyPwlpCYIgmYO5sAo1P/9HddT51LZ6R+oQrRlXrbmQtjyaFkAKQt198iCl/NPl3VSPHBDSEgRBsgY6kEJJo2dUN3mwBh8Awz8NJfzL3p+6NSVt5sLYknwxuRivS5uuoRNpTwASVLSvkxVV5UthbEEQJDugAylUFClCdbN6L7cHgNRMco9/OXb+MFIOymy7aRkhbTqy+iQZ8sSIY1P2kywaSjV8hZCWIAiSPXANpFBg5Ef1fA2qRX5M7Wt4/4fXvHpuLyOo44g/F9+D1+MxZ0aq2yIHUp21XkhLEATRDnQghYJF9al67E9tsyht3prX9hGtqgtpi7KlijiM+WbLFLwmWiau5p7Tvs6shnlskpAWIQiiHehACjSdplH9PTx9X7+2vUn2XNtXNueEtOl6/Ztk6f7JkucpqyxbV1K9UFNISxAEyRm4BlIgKedCdXO6Yq8A1S9VmUU0uIpMSJuS/JNI1Y79cCTFncWxZCgzighpCYIgugFHIAWSxcyBmGko7dQlpP07wQ0CgPURW77wGvIwtJq6bZA91efX9GERgiA5Ax1IgWIk2/LX5E76vi5b2y/l1U1VRNCyS/61AoJ5/W/VzZS1lrOs9OzmkkJagiCIbkEHUiCodJ/qgl3p+1yCnJvx2vl+u+dC28Wzx+NA97RtE2+rO4W3B0EQXYEOJH9jRGVGu4wP6XK3/U3yojpUFsgqwunD5+N5fSl/U0rdNseQ6m2s44EgBQB0IPman9gOitZB6fuKj3WbyWvt2dU9hLQp/GoEGels2rVjiLrtFUu/Pi5CSEsQBMld0IHkS1xaU125Nn2fkZHhAl6Hdv+dhucOh4FC2nbk0YlpadumsP0dYCqkJQiC5C7oQPIlI9lGO1sNhZXqXapD9lc4P3H8n5A2Rf8QY83rmaYXR6nbAvpS3d5KSEsQBBEGdCD5Cqd/qPbRkOpDZALJvLb8qYmw/6tTYQ4vy6utPckrN4lbrlhDu3qz9OvcIEEtQhBEENCB5CtWRFG1Lpa+r624ZX9enec4iYS06dmZl2Q7qn9wwDp12yFjqndbCGkJgiDCgg4kX1BzNNVO89L3WV+xIqVmOzdvp5eJoktjrnZK27YySh+WIAgiLOhA8gWDG2bc17BlvWG8yrrIYgQ0CeTz5G94vTb9loG67XFRqhcPCmkJgiD6AXNh5WmKuVHt/FlDZz2ozUuDq3WNBTaLcDzuNFksl7vLrdVtIy+wF4IGDiMIoh/QgeRpZjE1/iV9X5OZDQbzav/eLlFIm1TrVJd4PVz+BM2d+wzgRU/ad2a7kJYgCKJfcAorT+LJxhTd36bvM2wpIxv1flzVYabQdvE8efGsI6+J+5PKq9uOarATQZCCDjqQPEl314z7vA9UvMqrRVvzkQKalEKA07N02xcv+urDEgRB9AtOYeUpRGOodsukxJOPYa2/2ct0O76F4Hmzl3PJiztwSt126RJ7UUsfFuVdDI9SLb6VallW693UkylLJmnCshPL3lDlFFST2HFxDlTjn1INZwHTTyyoBttRVSzNta+CIBpAB5KnaMHSHbrPTd8nmyYjS+pVmlSkqRN/03iKh1Af7ADKdDdbID0CEL5YflHVCSC0WdIY1accGTcC/uLleYdXKRmtLrHl89jIHJ053yIeQbXRRaott1FtfYxqmTbswDYZnOD3NO8bfOeC6uCENMkzOZYL7TL7H740mOrOx1SfqwO8NewfQhDtQQeSN+hMZcJV9j5dAnSAtqYtSLiu5DeJVcYnqhBiMdOgC4CHp2kXySaA2BbKVdwlgNPwGZLK5sTEz/GhzXlNXp28Rd12Q13P415Ozpz3KfWQaovXVFspqTZkIwTjhanHGpUw3AblAIp/dCNHmYeak/GD3SZbErVmG25NJvxMXE2m8CqtISVZi8X9RR145cpwpOCWcr8ykNeEtYmkPFjk/SiSVflz87DlvMZuiCWpaoKOvZ8ucgOIio1+0WA3tUHth6bUo/qejVAuMdd/lI0Yj7K1tgTc8IlohaB7lpGMKPmM6qtMwl83fFhOnndNrhiXT99r2kDaV2QP0MLW/oThV/tBkpqoErnuAMcGhkQk/ZsTG88uvkimrDbe2rZX3dbSn+opDaVz8zNVr1OdwqLL2rxKf4zb2SLvea1Vu/oLXuucrUnqrjjE2BEHKzIQxQti7BsgIQwxRWPJOOTWFF/yv3Lf0Y/sz7l3/eHN751iejeqM25RTQzMTYORggOOQPIE7XqwFxoWo73My8wG6jjsNXy0P7iBMUA1Y8tTBkb8wyao4CsHEvdauYOjNchb5szGL6/D0/22PKybs3PqHXaj7BBMdXAJqo0dWf8rgEqKCmR7ZI2mVchzfEW/cra82oXZnibHHE0522ryrwEI4zjUlKATU+ZgRrTJ9AZk3NGEjUPi+sRLeH3g4U/+/x5I/ElJ4zuSe8TtJ9VKOjSRFSIbXprquhdUl7AMCG8PC/qNkHwDOpA8QbMiGfdV9qioLgWr4bnQpqFsivgqgN0+2QSxhtt5klL1Xj1BBr1zYmOcKm4He7lT3Ra2ib1Il8wkb+PJxnC7a1Ot8DG1r65zLTK11Ltld7L0bb7XjKz9QH/h7dSEooFyPK9v9wXN5/XD8o/kW5g2MV3Fq/vRklN5tZhjQZboTU1N+vDq84Fu2/EBqgqFgnzuqPPJzbzuCT5kafaSXoMt7cCIQ1THsXCNOVNYByfIV0XyPOhA9IoRy21V/0PGx3i6lGFLs6DBQbgkGfmJp7I3Z9P3KznOiTvO3uzOia2Jc5PozH/f1DbF45ycUThs2JP0XyxurD+rT2I+EqCpQ4No/nXLIk3P8+o8ximcfeyvbF1kMNCrVGWVH38FnabTP/HiDKkCszfoMKnvkjg28dsHgmcpr8iKjEtV5x94bWvfYhyvDU7VDf76cKlUeoPXjgvbkvfNdzUmU3Inm54jjwWnvc+TgmAxdWMtZ7O4v643qI5gtfcv/6rLb4jkP3AfiF7pakvVZFH6PsPXhuSZt6S0eHLGZ3AyN6wv6Zhxf9Ii1ZWcTl5RxBvE09O2iT7q4sy5hxtbPPZ9QHWUP0Axz6Ktecex7OM8Ut6qz5JeZE3nK8eRKSp/VSyvV1pdJ8G20yfPI++7f+lLlqgHFh9JltYf9vSvocvvYvjG8E+gjiOT34dUPnoEX+F13e3NZOOpqi03ILPjTbqZkCm5zrbtnHldcWM+CRmokVB1v/qYyiepXvoFQPy7uPH4a/S9SC/JdBD9g4voeoXNEEB7DVMCTf5rQKaM+r7rlZC+1zRJuk5UBqBFD/u/DTPZB/44OcZE8Rzg6dHYVwq3nNi6ZfFOssvj5K1z5dRt5hKqsaqcnFn39F9GdXEwgMlw4wfGMwDauLYgUz6tDzcjUzeyQTKjrJxL1VNFHOeVuteJgzjS8iQJWg4el3lUtOFUQ7JLY0P7ZeTJXvJEsjdHXyoBSMoav6qPSa7jO6b3iIN6b/eRxFS9aR5IgoWTbiV/sxun+EA3MgKZ5T6Z7hpxBsfsXJaTc8TR+nZ9QHaxbH29i2xgDfUMI+cVu4iSjl0FEPUXd/ylFoByivLEF1mOvimSb8ApLL0gY2Gv7StnfEydBTXofvSf4GX63hKLTO5LSrE3mTgQeRg3HmgZqn6wLgcmg1k/M5rp6lZqW1Ebqk/CcnJmHcA22M1hBaz+HAxg+MyQTLCMfzCSOODSqpI0p3FWi1tdAhJUvSJiPdlFcd3i1grSfjlrH3eoYkee4CVbJXQqrBpk8r+dBYyBOLyKAeWoQjn1/ztd+h8Gj3hJnJFI1m7iryaQkal1AysSfg0/QB9tLisyEMXxWv1AZZKazXOtO4nZmmG9YAOvgR+DDNvUA5B6iHoHbAQQm4hCfRoAqOI5+5eXcvSNkTwPTmHphZqNMu4zuGZA5p49KpR+p6G7BliBAYCroVFpSRYcgtKaK8qdzImtaqpW8S6Ztq3+aF2cWXsM2BrSjrFU/3wI4PW6LHkSX9xoFpl6Ka0qGaDNuZePX0dyIKc4ju8gGiT6kdcWPZqQ8Nmp7cbTsOmcOo6sIqLzCUYTjcgUl81pa7LmJRov0spxZIRZfzMSszV99kRSd7Kpd0MyQlH0UGxx6AOgWsRtv8jWSqoW0g2mhQd0IHrB63nGfaWXlSBBMBJPSVL6XsNSYg/RIQCz/yTzRKW+fyXVT9wUeJIjYxnF+hUliTJMq5uk7JMvl0nKldzElM25X2eLuN0PAZQeU5LswxjXYDgJu7Wab6lhZSnrWA43z1JikPKfvMiU0eo6i8h1f27bnYTzGu8wtsnJ9fM6EgsJSbzSZ0zPxbx2H9GFJlwZAMOLsPzQvpZUq0v0ZiaSq+B/rF4YfJ6qt4ZlzQpKL7IRrGp9bw3b8xzWGO6SbAYoesO4nKT596/0YUTiM9V7gOh5Co7LZAd7FvChma6eP3lFonSCX38Kth9Fu5Y0Y8c8zdEVvoubD9UDbDm/dg2AJvcakPJVI/z+IIlVpD9Ls+BYv4/rMBcSnOz/8jFxCMq7KrIGUtuxOtn58Wvk/8iIrOP8Nmd4NWxu2DU75w89G0ZGDLcD75KpwesJt8iawpUD18gax42Tt915ffzsKVk8D70aRv7/TCqZkJGnuYFZPV18zxzDRj5lXN2b8Grc05hMpfntfpyS8qYN21dyyplqqIaNmUh+BBfR9cIFFkfT0CB9X1+nXiSKp8miBhomiNytTb2kSwEqNrKIkP75/SvdnhT5Vv4E4J13gkxZIueWA+z3O3KX132zDq9Ut1mz+KVIW11cIT0+LNrnElscl+4E6DnypxD+dWvv5rT+oQFo+GnmPY40OkmmxnY67huvzedlfWXkr3balfEkrLrYNLccZRjILU7UOkvWYraW2JWyEhL9B1WvH6l+yGQqF8kP4BSWsLARR+VMslJZj7caknGvVVuDEFE2cq6KlkMFsMiGhd+l7vDaJDOUcRIrc/UYbg5coMsrANizEr5zmaM9JQUwe2vmyjuOwdH9SarA1tWb05SF+cRxqHnz9O2jnHw+eUMyidk75HE8S2HH+qLVzaa9eG3v2EqdZwEs2CPHTrr1BIz89WQcoiPQgQiKBZuUsspkCF9sVNFNGfcaXZX8JMpGbIvod9Fg0MmUjhrHC/ZkUXZkxz9owcRyUGvmDAAYDUMOsTGOUzY3mBmxZeahbM48gI2txhgAlJIWDzWrAbB47Szy2+pzvKYwi9K5RMmJxSbo4jwelqVv6OI8uU3XbZ1I3uhyPcuqU4VCvViqJ9nUpyiT+jdIXgYdiKBUWvL9Y6wOWR7KuNdsjOSyqGrWryiRiz5Cq6wfn3XK9/I6wesEx1Fkf3cJh2Ku7Vm22rdVqF6g2aJgO9uxvpRltd3C0oKcvEI1lOVgWhIJULSy6wi7FgB9B/QiKyyTfceTtQDT8iZTcuN7CE1z48YkuWGP1l1IlF3N5GrkgaGbb2cS7rvCaD5JbLO12xqyOP1b7Z+9eK27sBYZcfRf9AsJRG55tmm+2AcuChOR34qxy0aQCSzPlh4P1H0N2EbUMT/rzTwkR+AaiKCMY4WFZvVM32ceb16c17WHF0/S8NETUBOsATpvcA4y0rCxMCMebYuJVDwEeGYcm6Aoo7Xh2eCR1ZMjvN6K8CVL3o+HPCExU8FfQsjUnMFWAxJmW6JpMZJE3L17SZKZqr5VXfK+qJcr3alRHryEsBcRls9bQ0l04bAT4/5I2+fNWh6uEt4uRBvQgQjKXFZ3YYyGnRmVB1UkEzd/1h2m4UYvqyB+KVoN0NbDsZ7h8Kxf8fXJ+H3KwwD346N85FmI2kIQYXjc6wlxJHNFS0joRbJc3vUjK5bsE0o1cKIeDUSyAE5hCYpDVMZ99s/t0tUaT8XoL8kC0cPsX9HQUVxSdDD7n0OQ3KXcVk9DXputa5wyFefCpjanbdGfXUh2QAciKEUyyV5rvMhYkUmvrficpnTu38OgungpTM3+5xBEGDqZtSX7aVyfu1RSt/VimYV/mqk/u5CsgA5EUFybZdwnXSXJZFHUaIqkkeh09q9o1khyWFTA6gUiBQljuRHJvDDh5SjyoCMNl6aMP3aznTIlZ+nNvDxJS5YOcwaLeqz9Ql+WoAMRFPs1GffJLhlkkm5baimqLeqX/SuanJVEiKIAJBVEsdAu+59HEGGwjrL6wmsHrnX1tH3z1RWuCun9ysSd6mi2kfYESwT9F4t6vM6iGFMKfg0UyrJC+h+iLyzSxZ2kYjTcKLONYZXBMicb5mxKycaKMTcqkudpX68VKYhlX9w2JQt1R0Oq3Xbqzy59YDaG6hWWxnTeYADrUlYk59qKKfNJeQKns44N1Mf/OZmqd462qmYHdCCCIi6ecZ9opGhwxr2Kldw+bpn2V3Z+bPiXRIsRDIIIi3SSlORcGzZ9IEkCalhTdlPdt5pN3ZQu4AWsfmRTUs9NqFY9BWDpakH2fw01HUD2R9mUsSa53xof/uFI2s+XyWSmQ7egAxGUxJsZ9yWNTc5kJjPRU7mV+0H7K7tuMeoi3kPSZxbs0O0BUAxMAIwrSK6KggBcTxp3l+wF8OxkPlIqB/DcbT5fKk1Vd3+zftLtAE7njEaJ+wCY1pb+KrIHEAWIFkAFfX+ZwkwpSQmSM6zR/+qnpKO3rE91TAELSDewp7qSpZ/cw6aknKcAFK3vSsYVC+ymk9r1Zcd7mH/92Zj9selKL8dlXutMh2BBKUH5wkYgphr6ElWJmSTXi5coVZyJ9lc2mS8JFIUBmOyW1BAZAsR3Ud7iNKSLz2/YTZVVECcBlJhgYi/xAXAQGW4WFwMw+kn8k0gFAOvhJ/D4asfTHg0nUVd53wEALuz1JP5vEyDhuGoAVxUg+oL8OLcJIL6J0pqzAohwloeofgaIfafswT0GiOiefJBrA6CI5W5yGwT68oWC9rNakgmZm8PukCDfiCWR639mi8frWT7iO1f1aGAO8KlJdcFvVGtaAUhMxWTqrlm3RmTiqsvsDiRLs8k541vffDgEyG6ZhyUe0aorwQCK97TralaLpuWYgv00mue4cYZqrabp+zpcak1+IboGd0o3JAWQFhf9IPoNoH1VpxeGW7W34O6FqEVyS4DAiPhuyhDtz6M3jEHM/9Z6epv/Lk0E8HIxOyi11LdRqUR6yGtz4wA+JSX9pzwEELQsIUBpDRCjUNhxFwFAQ/FiJCs8G/qCZIGeEjo7JQv0Uxbu68WKNefkEUsQ3lCZE0z1z9rpDxlnO5ykuKm0vMKZzE7lXyGAZNSbWX5BSrDzavb4MzBYhzZnCk5hCcq7Shn3JfROyKR+m8KJ8+efgJX7OQ72a2+B0wDDHpIe2n9e35R6a3pPOibvOQ41Vs8NbohmA5R9ayaRPgVo1s6+guENgDatHeWGPQBq/W6tlA0DKLXD9Lx0GIBNP9lc8TUAkQd0gyL6tj4vU2apO1kDcG9cylDdVrYMAPjCxZ8u6NW0DJGwkcUvxai+ZGsTXzuOOuVrHOZ1xcH5JKfc9xyH4oCC3Cf+dd2eMlEVU4Pq31oE+ucMdCCC8lGZcV/o/S+ZRVndhAiQA0TGKcapcpA83fknoy3iEQASV1EEtNH+PIIzFkqBKUDZRDNTSSb1HPMqhoZiN9EBANdQoyLiNQDe+y16StcANIywXSRrDNBxn/NaozcA1bZbvTCwBShibjxKcgxA8kbkBZhq8Cv+6NGPbLg1kZuQgl/QHDpN60377NKtBuiHVtupvqYFB+BftgW41CwAqw6WpHL/n7WGkSzZQyYMCOPVJtH6Q1bOfbOqL6kIGmz9aaO6bSe7I4QKvuMLp7AEZXIM1Slm6fssbpmTgeeau4t3kAZr0FBBsHq0VX2DqgBuvxo/l2Syr/17PBHH7lSYAQTsjWmgCNP+PELh0MbwpNgDoJ6hTR9ZkL6tER7Fbe4srAaQj+A2cYsAlF25qnARQPUX9wNcBlDGcfZwHEDRiXvPbQdQVOCewxYAVXvOGy4AJIQoG3PFAGIqKUqr/gNICFI1hGIAXyySW6sqACQHqNy53/X9LbPDe9uPF3ndPmoPWXp+4O9/PJGlQlnFSupukVF9eIcq56eba4vZk35lO6pt2ZRRJza2r/BVyiKrfy1JtuUmTg3IinOzlY1ItKV5D7NsPQhytzgSZDOu75RpvAZVeC9T91W8TdW/pvbfSTvQgQhKOxZtcfhzxsdsLb7mf7xKZ0k11GsrVcR0maQPgHdNi5kGO3Ju0eFyIQ2T+gMopql2cNkoVCU0XgvNH0qdATyvmbWQRujbmoJH6LRkf5UM4MX8uNPKfgDB/yb+T7lQ31Zlia2wm5fLq651IW//29Wd17j/xadEKz1hJdUOsfDfk2wN0q8x1VhaGg1UTA09qDquplqfhUVUZ2suXdkitb2GGRyjAYYkSX2rYs0O8NpubCtST9Nwj6xJTr7m+f6XR/K6PmZLintax8oh9K+fkzPnBHQgguLEKrEFa1gmV7NAOp3cyF22OmsI1rI+bNBFfAyg0Ra7a7IuObfIv0TMRMU+gOfzYwcp8vCUVrkv5j5SH4Cy/c1eS+/q25qCT/RBxSFuI0DA6phZCjHAh/6Jh5Td9G1VVojdE0cyOtxK9CU3bN9K90kO7MfHn5BMDHJ/RUldXMdypwXJqV1+oye5i1YcVn4Xr9VmepNs2SZDTHTye/rpSUhLXsd5TSV/n0ndku69YzMYnsyhxelt9QwdiLCw6tWJ7NnIsHP6Q4baDSD1QGovq6Fp2+E88AJzgDaBjs8NOwAYfhLbi/Zqb1DcfOUzTgVwqttntySO/7uDSJBrf77cwqu2+UmpNYCni1kfaTbqoSC64bF3jKviDcDTSbG+Cmd9W6MN3D8cWcJ+0+UtKbD2YLbfMF5je8SRv8bYMfEkYYjSSEmWpA0jZDN4NStpRqb27FbakAQhVeO9SfSibQUbQyHsXpP4L1krufTrfyk7zoeytdRlet+GgQ5EL1wbSbWOhlnQn4w7kDn+jhvbns34DO52puWkSwEq1rcIl/6Zc4sePYo5rLgA8OxZbA1FnZyfT9c47DT0E1cEqLfPprksHy6iFxTuDY+ykdcCeFMv/rFSi9Q41rYGpcXbAWwvyWLEwQCyQ+KTsAAgqaUqGXoAxDRUvFTtB/gclbRLlUjCfI6BYNvi8hJ+3GPy8519bxG5S3PzuS13WRRX3bFUEzMpDyEMGIWlF16nSxeXyqs9gae+f4aXneIbKBYDJEepKkAmGbaySvny5u2ljQBMxknKiPLgb0VoleRzKtxDoXc8a5n/IU3mH4KhBGRj14VtvEwiDgNo1MAuTtYXoNIUC7F0IoDnA7PW0ggA71kWHaUrAOo1sxkj+wTQ8rbDF0MpgM3Pstnia7n5jfIakVWiyD702aaLyIMc7zjiltO+lj5U9e841OTBW0Vh4LpDxn2vhr5ZxCvnwWVS+5xby62A1wBvTiU0U7zTnWVeZc2PSDVEf+kbrgw3EvwBwtolW6vy5RRKwcC4m3i66B6AS7TRA0k2atQXn2AyUZKNDFYm82jmBJ8lNlGyCwD2/QxHiPPgvh8dchvImsnGS9vIRmGuPZeSU3fSUaqheS65DjoQvfAgk9JRkW+iSBK5oBnvs7Bo+dorbppyu+4sK3bUuIEkHsBuvay6OBMr9UWoJHm/KlnfViB2gTKlODTrx1vXMfAW787+dWR9RZtgBoDPc+szsv0A4i2i29Ag++fJ+5yse45Ugr8z4N56ddudv6kuzrPhLehA9IIvexaLzWQS4PTeC2+/f6b458poTgYQMCt2mi7v9zX/sh5o0ADAeK7kjSgbN4rc5pNz0j3VUX1bgRisEB+AuVk/XqyA1VBZ++tJ7EXh0AbAYZlsithe+/PkPXy/3CfRlls670yZon3Kclo1rUWVG6on474LOhC9IGd5dbcVy/iYi5IrJNpI7q4Y/v0zPlkQM10hBojrqbyjiySJRvXEE0S+AF7bzedJJTk/n64In5s8XFUbIK678nZBSAaZX1F0UK2C+Vk/Pqq4YqZqSc6va+Aqniv6O+fn0T/R+2Jm87pu9+Z0wTJ9valGtRberuyBDkSvrA/4/jEPWvpVy8Kp1sBbiAd4FBRzQnFRF7ZRipc2PihxASha2/iu5KHuzqs1pyEUkgD8X0X/rtDBRkpEOyJfyUupRmb9+E8+iXNVOshSHOuuGMrprYCrLggZ/ZkkQZxoMT2O1+irMRuS1tG+H1nlwetf9GhgtkAHolfusp//020ZH3Nj3p1spBp5PyKhv7IBQHD/pFWqzTm3UE0NF6s2BjUBrAIN7MWbdHdebfkwNvG4sjtATLLCjsujqfQKIpwLnIEQgHcrEkcoG2f9c2+bJlxQGgPEHVSu4rQIyw16mRCmdAKImCe/oOqU/c/rH1WIikxcz1+6bCKvof+GfVT3zYmluu+l3szTEnQgeYJDP2bcd3/nQ/J8ElM7NpNUjCmoqNzyipiQfBIg+qKC1LHQFZXXW26THgQQXxD5QzZuILnFqyLxk5Q5SG+PZI/3ZRI3KDsCqAZytSE7+0D4kWMywI2WEaHyOQBhM5JLqjKZwA0fKz+lag/w4MfobYoBAHfaRhaX54OcbemJ7BBFFv2nnJhNKoK+7/wxZeVzCXMY03KwOqRfcCNhnqAa+wW6cy/jY5o6NSBD3j6Leu3K+pltZsqWi28CNLxrO0Omw+iVYOekKao1ANc3hw9K/oUUX1Loo9aF2FS0AaoAtPByOG8YB2DsJr4oykLwAaIdlxt+cUmOAQgbnHxXlYMa/WpkMvED0XIAIy/xn3AbIK6j8iaXCKCczEVrLP6Vb1ApVSTByJSw2SSj1ovhrw6q+1beoDooD27ZzR7oQPIGLKfNlfJU62USqLpw90xSPsdZ5Tg56xdwjjZ6IJkMUOOKVWWDSgDSf0VOoIO6IPdfRFWRNwZ47Rd/XHk85+fTFlsH2UVxAEC9N7ZbZQkAkt5wEnz0Z09B4+3whDtKcwDf4ZHl5JEAcBei8mLKG/0TsvkzSXGyIHy5P6/vbn+Yo+5bwV6NYnl0k7KxipQ3wSmsvEEZKn94f//Qs39e0GJKKtgi0Vs5FcDvbrSDPBvRM9+jvI1FM4P6AAaHxSdFOjxvdvnyObmhygvgzci4D8r/9GdHQSO2p/JvLhDANz6ys1yBjiNjoovGkP3hMzouICOnrx3HIhaGO3gc1fzvONSgA8lTPGJ1C453yPiYy17XwnkNs/uioTDu93izLT5WeQvA99eoUXIZgLw0Nwdma20wGNiKZsPfAHV+tW5hwJ/nFNQEa+3Pl1Oe3IpdqTAEiFUq+3BP9GdHfke+mtsHywBuL41YJ79MyjbdAkyjr4G7VR6QyuxjPkwiI97QAWFH4lk01XiWdXt0Pz0amKvgFFaepHEc1XOZbDQsvaokKZ/zz4kJtMBSD8hkKT4j7EJkbcQSgPp/2N6V6WBO+3LJL1bJkQBh85KfqIxyfj5tMUgS+4qWATSbZx8jOwZgdF/cQ3RZf/bkF1ROMAQeAlw++iU8+SNAeFDyfFVDfVuVpwimyR1P/+8Cqc2+yXF7ukqCrdgOpZN6/AsQBhyB5EkuDKF64n7Gx7wc+Hotr1emXs/CxFdGhDkmH1MpAU5e/hyZFAnwfkriSWV37c9nelRaW5QH/mzkhqpq3BCAWyMjlsgvACjcuQDIA+HHeRXFB+4qrAW4OS+ijXwnOo70xEyKIQlFFpuvIg8iXzsO315Uq7EA44LvONTgCCRPY8qeZIJYXJGNe/pjrMdYkaRrS97MrsKrQWcDHTwW2CXKOooNACq3t1xgsAvAwkzqI/rf9z93cc+Xf5N9AcIlyS1U5XNuh66wDDG4LZ4NUP+ZbYTMEsBgiegXGKFvq/RPwjLVn5w3wOXEL9LkLwBxJRVD8vdGPV3zpO8zUtF8drlF5MEq+Y7cS913mMUddi9BNaHQxf/hCCRPE8dK1vwzK+NjIuZFkiRs8+yWkgrNigkKLeo0pCXMKPmgSg5w7lHo2KShAJcHffFITgDwOx5toZgD8GZpvI/yDcDzUnGrFd0BLtf44pAcnfcch5ooR3kN1TiA/4LDPyZXB4i3UIq4bKQjL2h8qpL0SHUM4EqHL27Jceg4UglXRJA1vH+NtpM1tJl9F+4D5jg+9aHH/MLi+zqwkUbhcxxqcASSLxA3o+rLtPKojI/9cW2Hv3jtZN62lCDG5UvE70SvoTlAvZ02TWVPAexuyeLFIfq2KvfxqxhdRbEC4MXkuOOKvvq2Ji9xO+ZuJV43BG8lCYaiJ8f0VvcdZWH2Px2jmjhaPzbmPXAEki9QnaHa3JFqUCZ/+kfXnSRRIY+OBWRhyqmwoirKlYTTAFfl4f8mFwPw+xBdVLEQINFRtZGrq2/rdEeQY4JSWRTgTK9QWVKr3HQcyjClK68htUJX6PK83DbuNK9X394g2X/vLX9INubFT4jXrhL4UiB1/Z72fE5iHufsWOzL66L+K0nOOd5x0LgqgPYsKrLDz1TRcaQFRyD5kma1qZ6+/v1jZ8RNIuGXJY8UP5DbduV/pFHiSaK/ACr6m9+V/gFQYpHJfUlpfVuVdULfJG9RxQP43oxcJrcGiJcpj3CC1K8743OR1A6/8OryI15nf5qik/04iSsTyWPTr1cHaayKUW1+ZRKN+MuxHmTF0HaAzQ+ajovrF0fKuC0LXEc20D60949R94XfojqW1fbccIIq56SLb1CQQQeSr/mDbUha0ZY1aEhW4jSWDlsmWIw6xKtdSdt8k+tT/5gppCGiBgBFRxgvkVwAcO1s5CPZAmC5TNpP9Lv+7IpcqOjOTQP4lJB4RXkQ4MO5xNuqXwAit8ttVYMB4AZECLvhb9+XwyT4fP/gI2Tb3EaL5STM1XiNsaEuzv9h7Mei5PwVj5Cp2RvH7micom1yqgGJTqz3tjYZR1ya+x9xMJeV/13hVRXIiZ6x1a91bMfSZra2ETZdF5YWJtCBFAjmsXii0QszPsYiwcKG11mH/t7Iqw1YF2hHotioIEub0vNSelvYDut0cFr2F2OyUuItMgAosdMkQOIB4HrfyFayAsC8mRRELXRwHcaX+fIRqloAn02T+qqCAAJXxtdVvgWIn6J8wmUluaZgHK50IpjXXV77SbbZfqG9SfRS43P1z+fG9d5Wf2fO64r564ijfLf6Q4ZTtgG/UZ3OUo3u3khVlRuGFSrQgRQIDFjR/QVdqA5xzPhYt5CipLb0yPN/kB3tjiIHve6PuHr9BnF/PmdqVudVPEWcoxxd4bUiyA18UInRZE7erXsRstO+d/Xui3kt51x2hi7s1oxkpcgOugGY2kh/ElsDmO2QTBMVAxD/K7oNDQFEltAJXFhKEAUAtw1WwWsARSPuDbcNIOa6QsqdBojvpHTgrAG42txYeJx79uqOR22efOZ1hvn88bxWOVyJJP0cEz80LjevK99DUqzAmekX9/N6qPOxsrzGPo1bqj7mMsv725hVkFEWoFUu/YIOpECyuArVYXczPsagqJTk/p0a+hdZPCzxbzFdPKFnm8XHV5Epj2GffiepWUR9RW1zcj5lOxXJODSg9DDiiOKC47+phDe89UDyvmbPamY5uQ7yLQmRiRN47TNw0Df1PjbVWEme9w1HGAqSrfnJhWc1eJ22bm6FtH1jmWVznYWwpDCAUVgFklH9qU5eTTVBQy4e+TsFcTOzJy4i9TTuHL9HC9ycy1adhxwjPygnjzGiTiKdPBdKjojJiKPv6t4aC2qtrbOpM6+P3J9c08X1EIqxpRGZKnS4bv/N2pCf8+NnQtrh2ajMbV773/1le9q+SX9RNdFD4YGCCTqQAomS/QlPG0i1syzjY6MnxpC544XbVkziddfCA3eEsFFN8t/JJO01WOs2CWPt+OoLeK3MVfpmnB0/IYGEf86oNp88Gb9q+aaXLq9baBHR+QyPGaWafd18d9qDHCTr1J6Gz+sl8mpf1zZB3WbG1j58sIaljkAHUig4uYpqOQeqodMyPvaw5fGnvM4KW0h2lH9Y8LFKbtqW4JdIN2xxuVOQqndUN5Lb2PZnmxqa+pcXW0sKCkd2j+yWG9cvbFT2qdjy6/d3HR+SaKlkH/lyfdjjauEyLG2bTSY55pDsgA6kUBElBTBzNv3Z/m+Anie6epJGOWgsFeo35HFNXv86/A9ZnLzy5Poi0uELOv3zk8fIadK+BZArNxinkw5k/8A/v08g9RksNpp/8/z5KeozCeKc8moOmeBIjEkamht2FHSUY5Qk5YdqteqbqKtYp9jXvJ4cflYv6fXDh0VMTNuWXF0flhRE0IEUKv5oCuDRqDQZ2reOakb21c679A+JgmrQpi5JkCJrZ/BNeG+yazKZ2141bQPZIDYjfD65IQcaB8XowibxaHE7XhXJipq6OF9GWAdakRvZyF2DnvNqstNE8nV/SKnPZHF9zV8bicOEB+Cfm/bkF7j2HEkiGL4/gmxbvZ54m/y+bB66g5RBm1J0Nmnv+b7/SV5XBK3XuOHvUOfjZOk6vHyExo1+uuaa9y1SITOo+Xs3dVvSG6qXM6n4iWQHjMIqHLAHhXf7ATovbreoSAeALo7tLTQd+tkolNwwljRcTeqMvLYKLKvpOIch9va89lP0JlNPFX7wmqONaVOezZ7J6/BHA0vyatXZUpCppHcr35PvOXH7DDKhl+yW/M1c/S/v/0eCoZtfbTRTCHv0jbK5ijiGgFZPyKL3/X3+JOz5dt+7u3n9cjo8UJvzmtqZ/MJrXFg8CRdvXbMZ2efdc3jXYB2an0Jg4yAysh7vMDVdxfE/D1Gd1zE3rlwYQQdSKLBiy5oRpwEG7u5LCk/9oKqT+Ya3vUD+3G63uDuF1xMBZ5vz+mzxC41TXnbTbMn5Kg4qR6K6LCqYk5xLPhtqmfJaJNKliabPzTm5+CWvrcY2I7+NFfy8BE0Cea3+LZJyY7nL2n819c/4PInUfSh5vvgpIe3KKVx5jiS8iXSPIo7wTZG3pBhA6I9hZH/ES+PXJHngp0efyf/ryzOvP2pzHevPVjd5df+zpAevXt5l/+HVU+JBEoOcf3aZ7Mc5s/wi2f9tdMaIhI1PfDx6EK+lnEroZj/fc3jFyz8f55Lfu4A1z1J+j66xUrI/tKKqqq+TKyLoQAoHNQ9TvdkOYHjXgRtIW4dqWp3r8c4n5M9vm8MesjQfuD5oQVY+V6pECZLSwiesJgkqbti4Hon+Wn1kI8nVVKS5K0nC16V3e708Hx4KPn6U190jDxz6ur1a/cpkCmTU74Mn68OutCTOSjTmNeR4KHHMz4u9JFOPnxeEkiyyb2+928mr/5YAeruUgb0urmu2wpQ4iqqR3mQEUfOvavG8OpV1oL9dA+AXTZ/7FBgygNe5S2m5ATUWDuZkKmvhhJmxvJo6mAzKiX1P274gud6mms0+nravHste/V8mmRoQbUAHUijo8oDq3koAE+JHk6mm8oc97XJ0UjnNtfSmxVtyI7i/1o8sst+dfp9kO32d+DZLK2wmy42jea3S0JucZ5BfvyE5sktLuLscmaKZVGmGlNdXvd4QhyGKFpG1n6n9xpNk3pHtooidyWuSyQ7o5D/kZN+M/D85rcdiqWjNq9KOVvRTjVeSkY3ihZJsXJSflRNN8Egkay2xN+LIE7uiiIJM3cn3yMnPNd42gSxKRyRHkif00N5hZKMn15T7OTe+v+y8jESr1dtb249X5y6OJAtucXc3EvZsM9GaOojKUDE7571/ze89r1v3716lqb9y7YpkfDy6+xASzCC2F2u1c31X7/3k53VYfuKkui2epfgx7cAaNOSKQ3KCVN8GIEIgVSd12AAgSZao96c3z9FJDYDUUC9xvtgNoqWK1eLVwsWcDG1ev96acmgAK4i1P5yqJfvDNp4LoJql2l+sPMDdl/cPNePHJoFAn0S7Qqcc2ZdNRFVFxYGseTQmUVgrYT1p5yw4Es78N7ClkD1pPnj1u6emEyZu3z1O4xRaClsh244jmk1Snomm+ozdmi+bUr3DNpqG2QMkN04+JHEG8GpQhmy0LOFXjH5TP3aybDoONSo3lXqDaIoD+VKZqu19gPs3/EixgoWuK4hDHuUzmCTkETmJspWEUeIgofvMv6pQbkLjBsGK1RCM1OYLIJmAUViFAu6v1NcJLxIG5MY1vswLJ1MHh0+eSHf+DSxpyN/zqQ5zpdp/CYDCXNFynidAwuJEcgMP2xf+KDfsyyre4yssyagvjj3J3lRQjSmmm2tG/UP1xTyqN9it9iTb4rj/KdW146mOK0r1FxeqHWjcGJR9T9V0LFXL01R/vEF1InMGZ9n7yEpUd341yXVg6tG9vCafSdbJtxNfEe9I23bxNft+Xznju/sekPDqFdXWkxGsMkpZPDvXaerbkEzNmpQ2ThfMMWK4FoYjWQAdSKFA8VX17yT35EW6PHfQ9fdk7WKs++SuvIaV+ZLiQHzZyGfJ1Exsq6IccuPv1PfPWj/fp0v7sovpJpMMF3XD2eRabQOqFkFUpWwy0IzuaAHrWKo2LNzAkhX5NR5MVcJ2SojYFLIV+/4ef1Ktw+pStNpGtQvdsQMDWJzYHOYoNrM4psMsieYz5lji52bvOy/7amzxoX4wuSus/LiBRE2pTqteZ+9s3yLqLUo30jVgv4Ft2KrJ3a/q2lyrd/Mhr5NqzaBTfe6J+7NyHatLlmR/UuM7Dc6l7RvKSmjJdJgnGQF0IIWFV6GprxPjE3P0PMYN4Ug224ubrpLb1PRq80iCiLjd8V3Vx5y6SLU+e4ZUZpY4fgfsjbtANihe+m8jwLN1L3MlvDOrfP4QWiujvgcOmtvV3y+OZRGLNKcawZ7so1k+3URWq0+lMR5Nf9xmW/z++squIL/35Ea82XEnGS8qZyovanNu1RAuXUV/Q1biSsWSjHQMoHojMfWYN95vyb6gaW3mkLT8L3q92piV69VrWmtX2jYrtuOn00stvgCSCehACgWvv0ou8enD5645OdfGntvIPt61pzeR/QIxP8d6q/t2sjWOtuyJNr59Nk7cE/rvGQYQUPepb07syynXE26nS32h5qhe9lILxyw2Mtq4OrXNf0sA2SezcP5K4lCiL8SkS1KYGZ/uhvyUti0xTdKad6xeRx2Ws22/UWpf4Kcg4n7/VswkyS+3O+8lDy7KzUqNU50vIl97ZmSLCnNg6RiMwiocsB0Mn6wAKo0vv9mxJsC4iiMUWflo6NowMlGz8cE2Eq75IML/gbovnD1pj2FTLxv/zpmZFuzG8XkWwIwRk0YZDgcoWaO4V87OmjUC3YPIxsoZp+aTHdOxE+NSsgM/Y7fA8uzZViERwiL9Ycry5y5iU2a/ffXsbyI3IY8j1U54k2CDMm/cyYSb4yF7EiwQ/yWebEB8HfqWTOydvn2BRK0luCWk3L7/ZNnV5mWQFEfGpgDHnKE6mr23+irtpWFZGen1cClNMgYoeiqX8frU+vkYXrmOXEpYcKg71WJscishW6srSMagAylULB8EILMzODloOcBGkxXkD04yR9JZ07HR72LO8jpRNZ1sMAsdF3ZF3XdvGdXGbK4+UsfRfKfmA9QxrrG4+SiAIRsHmOv27N8Sbh9BdtqPeT6JLCnH/5GQrk5IE7bof16rrXb5nwFsEX91mZyd5+1tquXbUY0NydrnvFjuqr0sBYnXg+xdtyurDLJHr+EZBRGcwipUbGoLkBwmJ0+Q+12OaEyf7h8VQJZux66YTP5MeccRy35PZhyl+gOLaNW141BzfCyZSiJrNSFxn9NNgeiCuIFxxC0ssllJpki+dhyR96h2ZovmhdVxqFnDktmUZGs581j01/PvJOCXM8ezmRWbrf6QalYdh5oAVmCgPJsabc2mStezLZ9nWfsFFqywhlV6qc1KpKHjyC1wBFIo+Y/FxficAujypD3ZyRCxKZIEVZ6fc3mZ+rgkNsXQqDbV60nC2GfLoorC9gJ0GdOelMfqXKWdTpItJvsnkwmUCVv+IRMz799/XJb2mGbdqZ5NtxyLaMKSrYoUZzf0BBZI+4rtN1FmUmIZyc+gAymUVGOBkUfZYqnTmW/7z7LI/b7smfxddhbDdcgSTwA7S5uXQwMAFnrNJFYZDDVwzck5N9ptI/vJzja9OErdFsxWgzqzsNIb2VomRpDCCjqQQo2MZQ3qxnJlPWf5Vm+yfQ6QLquQsJiw+P3PYQDtlrZ8bXoIoLt9F63CST92/ETSuI8ympBuo1mtTVRv/ZozexGkcIEOBMkHzGMbIUcvBJh9cwrZp13sTdFMCvWmwrXgSJDA1PazSSzPsysvi6j7fmQBzfvSpidBECQL4CI6kg+YG5/6euff+55n57Nv2r4lObW+dhwX2M5xdBwIkhPQgSD5gNA1VDu3Bnh45hFJhHFAepTu/46EqMw+e+vo3XSVEzdpLKWFIEj2QAeC5CMOnKC6MRpg74+HyPZF3x4PRmo6NulYUmleLxW5mrLvOf4g1b1WgpiLIAiC5DUcWMru53UBTI6YWHAcQIfrrSN57dOq5++8OjVz8OOY6+DY4nj79/qzGUEQBMlDGK6lep2NKFIcRhodj5XoEARBEE1IG1NtvJtqN+ZQSmeQawlBEARBEATRG7iIjiAIgmgFOhAEQRBEK9CBIAiCIFqBDgRBEATRCnQgCIIgiFagA0EQBEG0Ah0IgiAIohXoQBAEQRCt+H8AAAD//6aMha26eC6qAAAAAElFTkSuQmCC;imageBackground=#FFFFFF;imageBorder=#808080;rounded=0;labelPosition=right;align=left;fontColor=#000000;" vertex="1" parent="1">
          <mxGeometry x="510" y="295" width="100" height="100" as="geometry" />
        </mxCell>
        <mxCell id="Aq05t7c2WjxG7eI3XZw3-4" value="MinIO&#xa;Storage&#xa;S3" style="shape=image;verticalLabelPosition=middle;labelBackgroundColor=none;verticalAlign=middle;aspect=fixed;imageAspect=0;image=data:image/png,iVBORw0KGgoAAAANSUhEUgAAAMgAAADICAYAAACtWK6eAAAQ00lEQVR4nOzdC3RU1b0/8F8ykwkhL/IggUAICa8AIvwVS6lU/nIBrUiBWrm6TLGIFVTUlGKgpRS4oEJaJMrby0MBy71wVbBypUKxULRWaIEoSSAk5EVCQt7v12TuOluCCJOdvSdz5syZ8/2slaWL2WfvvZJ8c177YbbZbDYCAHtyvLXuAYA7Q0AAOBAQAA4EBIADAQHgQEAAOBAQAA4EBIADAQHgQEAAOBAQAA4EBIADAQHgQEAAOBAQAA6z1h0A+xrzCqni+D+o7nwmNReXUlNhMft336hIsvSJpIBhgyh08jiyhIdq3VWP5oUJU+6j4XI+lR0+Qdc+PEpNBVc7Le9lNlHgPXdS6P1jKeyBH5JPaA+X9NNAchAQN1Fy4AhdXrmebM0tDh3vZfGh6BeepKifP+L0vhkYAqI1W6uVLr+6kUr2f+yU+oLvvZsGv76ETN39nFKfwSEgWstcnExlhz51ap3dh8RR/JaVuD/pOsxJ19KVbfucHg5F/YVsypi3lKz1DU6v22gQEI3UZWRR/oZ3VKtfCUnmy6tVq98oEBCN5K7ZSmRtU7WNyhNfUtHuD1Rtw9MhIBqo/jKVqk9/5ZK28tfvoobsfJe05YkQEA0Uv39YqrwlIozCHryPek6bSH4DY6SObWtopOzlKZI9hHZ4k+5itlYrVRz7u1BZb79uFLNoLkVMm8ReCrarOZdOl379e2rKLxKqp+ZMGpW8d5giHnnQ4X4bFc4gLlZ3IYv9Ve+UyZvit6yiyEce/E44FIEjh9LwXX8gn4gw4XZz124ja129I102NATExRoyc4XK9Xp8KgXdNbzDzy3hoRS7dL5wu9aaOva2HuQgIC7WPuiwM70SZnRaJvT/f5/iVi4gU6C/UJ2F2/dRS3mlUFn4BgLipnxCgoTKRUyfRHe8u458wkI6LdtyrZyyl7/hhN4ZBwLiYqJ/7esysoTr9IuNZkNLlJv6zlR8+gWVH/tcuG6jQ0BczDcqUqhc4fb9UvX6xw9gN/UiIcl5dTOGoQhCQFwsYGS8UDlH3oIrN/UiIWkuLqWCTXuk6jYqBMTFLOGhbLStiNzkt+jqHz+Uql8JyYBVv2KPiXmK9hyg+swcqbqNCAHRQPjDE4TL5iRvpbJPTkrVHzZ5HA1K/jU/JNY2vGEXgIBoIOInDwjfrCu/yJlJrzkUktilL3DL1KZeYG/YoWMIiAbMQQEUkzRX/IDrISk//g+pdiIfeZBikp7hlslL2UktFVVS9RoJAqKRiOmTqMd994gfYG2jSy+vpup/nZdqp/fPZlCfZ5/o8PPWymoWErAPAdGQcjNtiQwXLt/W0EgZ834rHZLo5xKoV8K0Dj+/9v6f2QBIuB0CoiGfkGAanLJU6N1Fu/aQyLxIVPRfNI+Cv///Ovz88soNbKQxfBcCorGAOwbT0P98jSy95M4kaU8toqpT56Tailu1gAJG2H8PU38hm3JWb5aqzwgQEDcQODKe7tj7htTwdWtNHV18aSVbbE6Ub2Q4GyYf/IO77X5e/N+HqPTjvwrXZwQIiJuwhIdS3LIXpUOS8fwyai4tFz7Gy2yiweuWUMCoYXY/z1u7nVqra4Xr83QIiBsJue97LCQymvKL2OWWTEhM3f1o6NZVdkPChqFsxjCUdgiIm1FC0nf+LKljGi8XOBQS5UzSLbbvbZ9d3fsnDEO5DgFxQ33nPs59LGuPEpILzy+TGqWrXNYN27Hm9pBY29g6wYCAuK3+i+ZJh6Qu7RKlz/2tQyG5dcJVzZk0qvrirFT7nggBcWNKSMJ/PFHqmNqzaY6FZOftISl5zzkLausZAuLmBqxIpNCJ46SOUUJy8ZevSL3484uNvi0k5Uc/o6YrYnPoPRUC4ua8zCYa9PvF0iGp+vyfbG1e2ZAMen3JjTf77VszGBkCogOOhqT86EnpkNw6K7HyxClDz2HH/iA60tbUTPkbdlHRrveJ2sR/bIGjR9CgNUlkiRAfzlJ/KZfSn/kNWwnFHBJMw3evJb+YPg72XLewgY4elX1yks0PkVkdXrm3GLHvTamQ1JxLp/NPLmTt+A8bxJYXunWVRw+HDXT06MaUWm8v4WNayiqk18QKHDmUBr6axP6/Li2TSiQX3fYECIhOKSGJmPGA1DGVfztNhW+/J3VM+EPjb8xKzEvZKfW23hMgIDrWb8Ecu0NFePLWbpNeTqj3z2awkFhr6ij3D9ske6lvCIiOmYMC7A8V6URu8ltULLlYgxKS6MTZVHb4uKHmsOMm3QM0XS2lrx97kd1nCDN5U/zmVdRjbMezDO0pOXiEgkffSb59xFaI1Dk8xfIUDZfzKW32IqmQmHsE0Yj9G8lXYjajweAplqewN1SkM62V1exxMeaidwwB8SC3DhURUXsmjYr2YCfcjiAgHkZ0AeubFWx6l93HwO0QEA8kuoB1u7aGRspf/47q/dIjBESH2lpaqezPJ7i/1GGTx9Gw7eL3JKUf/QUTpOxAQHREuZkufu8wnZk0izIXvkY1naywGHT3HWznKaEzSZuNctZscV5nPQQCohPV/zpPXz32Il1e/obUo1z/+AHU99kEobINl3Kp6lRqF3rpeRAQN9dSUUWZi5Mp7cmFbPVDR/SZM5N8o3sLlS396JhDbXgqBMSNKZdTZ6fMobJDn3apHi+zifo887hQ2Ypjf8d7kZsgIG6o6UoxnZ+dxC6nrDV1Tqmz58MTyCywtXRrZTXVnr/olDY9AQLiZipPnqZzM+ZRzemvnFqvchYJHjNKqCyeZn0LAXEjuWu30YWX/oO9l1BDYAfr8d6qNjVDlfb1yKx1B4DYGlZZy1Ko/PAJVdvpHi+2uy6WHf0WAqKxuowsurjgFbYItdr8YqOFyjUXlbAFIrx9Lar3yd3hEktDJQeO0NdP/NIl4VD4hPYQ3l23uRhjswgB0Yat1couqbKXvk625haXtu0bFSFUDgH5Bi6xXKz8L5+zxQ8acwo0ad8cGKBJu3qFgLiIctbIXrme7SgL+oGAuIC1voEtAVp54kutuwKSEBCVtVbXsn0Ea8+mad0VpqWyWqicl8VH9b7oAW7SVZaTvNVtwkHXh7GIsET2VL0veoCAqKjw7f+h0oNHpY8TfRQrq6moROwtvckbK51ch4CoJGfNFralsqwe48dQzK+eVqVPjblXhMqJvlA0AgREBXnrdtDVPQelj+s1awbbpsDLpM4K6rXpl4TK+Q8fpEr7eoSbdCcr2v0BFe7YL31c+I8nUsyCp8lLcKEFR9SeEbsXChgRr1of9AYBcSIlHLnJb0kf13f+LLb1s5rampqpWnAIfbDkcqSeDAFxkrJPTrLh6lJM3hS3PJEipk9Sq1s3FO87JDT5qlv/vuTXL0r1/ugFAuIEVadSpXd88vbrxtauCpsst++gI6z1DVS4XeyyL+xH41Xvj54gIF1UeugYZf0uRSocyjX+gFULyC9O/adFyqXVxQWvCK2EYgr0p16PPax6n/QEAemCkgNH2IhcGaETx7Eda12111/WshSq+uyfQmWjnprJhsTDt/CY10E159Ipe3mK1DGuDkfB1r3CK6IoZ4/ImQ+p3ie9QUAc0FxaThdfWil1WRU0ZpRLw1G0+wMq2LBLuHzUnEfZjlXwXbjEkmSztglf07cLGDWMhrz5O5eEw9ZqZWv2yryL8Y3uTb0TZqjaL71CQCSVfXxc+IWbwicijIXD1N1P1X7R9a3YlMs+0XuOdnErEjH/vAMIiATlr3PB1j9KHdMv8efkExKsWp/oer9KDh5hO9jKLjTX64lpFHzPnar1Te8QEAn5m/dITZUNuX8s9Zw6UbX+tLW2sidpV97a69DCD/7DBlLMwl+o0jdPgYAIqjmXToXb9wmX7z4kjgauflnVPtWeTWdfjvAJC6EhG1e47KGBXuEplgBrfQNdSlot/NTK3COIhrzhmvsOR5gC/dmGn5bwUK274vYQEAF563ZQU2GJWGGTNw1MXuy2+4iz8G5YgTkfgnCJ1Ymr+w5R8X99JFTWy+LDhpDIbs7vKgF3xtPgdUvIEoHZgqJwBuFozC+iK1vEn1pFPjqFwiff1+V2m0vLu1zHrfyHD6K45S8hHJJwBumArdXK9gFsuSb2yxoy8V7qv3hul9q0NjR+szmnxBvwzij3GzFJc10ypN4TISAdKHn/MNWlZQqVtUSG04AViV1qr/pUKl1+ZSM1ZOV1qZ6b9fzJA9Qvcbbq72E8GQJiR2t1LVseVFTs0vkOj2OqOZdO+Sk7hWf7iQgaPYL6LXyaAoYPdlqdRoWA2JG//h3hN9Lh0yZSyPgx0m3UZWRRweZ32Z6AzuI3MIaiX5hFoRN+4LQ6jQ4BuUVjXiEV7/9fobLmHkHUP0nuvkOpP3/Tni5vzHkz3+jebJPOng9PwIs/J0NAbpG3bofwC0Hl5lf00qq5tJzy1++iawePSA2T5zEHB1LMonkU/qPxCIZKEJCbKJc95Uc/EyobNGYU9Zw6odNy1oZGKti4m67u/ZPT9wLpPqi/UB/AcQjITQo2vStW0ORNsb95rtNiajyZAtdCQK5Tzh4Vn4rdMEc++hB3wQUlGAWb9jj1yRRoAwG5TvTs4d3Nl6JfeNLuZ2o8mQJtISBEVP7XL8TPHv8+5Ts35k1Xiqnsk7+xr7qvLzqlP6ZAf+mJT6AOwwfEZm2TWi408vGp7L+NeYVs1ZDSD+W3N+iIb1QERf3iMfI2mylLcjkhUIfhA1KXlik8Gy9syv1s7valJWvZgnHOelzrZfFhS+70fTaBnZ2uHTjilHqh6wwfkEqJBQ4skeH01U/nS61owtMejKg5MzF5yU0hIJ+dFi5b5MC2BvYgGPph6IA0l5ZTbWqG6xo0eVPPaZPYeCkEQx8MHZBrB44StdnUb8jkTeFTJrA9QLphawFdMXZADqp/Mxz0vZEUt+xFBEOnDBuQmnPpUmtcyboxwnbqv6m6rRqoy7ABKf3IecPNb+YTFkLRibMx9NxDGDIgtlYrlR0+7tQ6lWBEzXmUImdOwTq3HsSQAak6lUqtldVOqQvB8GyGDEjxvkNdOt4U6E8hE8ZS2OQfUvDYu8jbx5DfRkMw3E+2paJKeGCiPb0SplG/xKdwtjAIwwWk8uRph8ZQKWeMvs8+Qf7xA1TpF7gn4wVEcnMZBMPYDBcQ0d2Xgu+9my26hmAYm6ECUpeR1enTq6DRI6jvcwkUhF2XwGgBqT6V2uFnCAbYY/iA+A3oR7FLnkcwwC5jBeSmVUZMgf7UO2E69Z79UzL5ddO0X+C+DBOQ+ux8thBCezB6JUzHxvnQKcMEpLmwmD2uRTBAhmEC0mPcaPYFIAMTFQA4EBAADgQEgAMBAeBAQAA4EBAADgQEgAMBAeBAQAA4EBAADgQEgAMBAeBAQAA4EBAADgQEgAMBAeBAQAA4EBAADgQEgAMBAeBAQAA4EBAADgQEgAMBAeBAQAA4EBAADgQEgAMBAeBAQAA4EBAADgQEgAMBAeBAQAA4EBAADgQEgAMBAeBAQAA4EBAADgTEDQXeNZx8wkK07gYgIO6pW78oGrZzDULiBhAQN+UXG42QuAEExI0hJNpDQNwcQqItBEQHEBLtICA6gZBoAwHREYTE9RAQnUFIXAsB0SElJCP2vUndhw7Quisez8tms9m07gQ4xmZtIy8T/sapKAffXR1DONSH7zAABwICwIGAAHAgIAAcCAgABwICwIGAAHAgIAAcCAgABwICwIGAAHAgIAAcCAgABwICwGEmore17gSAmyr9vwAAAP//PxSHDMJf/v4AAAAASUVORK5CYII=;imageBackground=none;imageBorder=#808080;rounded=0;labelPosition=right;align=left;fontColor=#000000;" vertex="1" parent="1">
          <mxGeometry x="510" y="155" width="100" height="100" as="geometry" />
        </mxCell>
        <mxCell id="Aq05t7c2WjxG7eI3XZw3-5" value="docker-compose" style="shape=image;verticalLabelPosition=middle;labelBackgroundColor=none;verticalAlign=middle;aspect=fixed;imageAspect=0;image=https://img.icons8.com/fluent/512/docker.png;labelPosition=right;align=left;textDirection=ltr;rounded=0;fontColor=#000000;" vertex="1" parent="1">
          <mxGeometry x="90" y="90" width="34.07" height="34.07" as="geometry" />
        </mxCell>
        <mxCell id="Aq05t7c2WjxG7eI3XZw3-8" value="dockerfile" style="shape=image;verticalLabelPosition=middle;labelBackgroundColor=none;verticalAlign=middle;aspect=fixed;imageAspect=0;image=https://img.icons8.com/fluent/512/docker.png;labelPosition=right;align=left;textDirection=ltr;rounded=0;fontColor=#000000;" vertex="1" parent="1">
          <mxGeometry x="-70" y="90" width="34.07" height="34.07" as="geometry" />
        </mxCell>
        <mxCell id="Aq05t7c2WjxG7eI3XZw3-21" style="edgeStyle=orthogonalEdgeStyle;rounded=0;orthogonalLoop=1;jettySize=auto;html=1;exitX=1;exitY=0.5;exitDx=0;exitDy=0;entryX=0;entryY=0.5;entryDx=0;entryDy=0;strokeColor=#000000;" edge="1" parent="1" source="Aq05t7c2WjxG7eI3XZw3-20" target="Aq05t7c2WjxG7eI3XZw3-2">
          <mxGeometry relative="1" as="geometry" />
        </mxCell>
        <mxCell id="Aq05t7c2WjxG7eI3XZw3-20" value="SQLPad&#xa;Web SQL Manager" style="shape=image;verticalLabelPosition=bottom;labelBackgroundColor=none;verticalAlign=top;aspect=fixed;imageAspect=0;image=data:image/png,iVBORw0KGgoAAAANSUhEUgAAAMgAAADICAIAAAAiOjnJAAAOC0lEQVR4nOzdbVBU5f/HcQ6wIBiCiyyERozcqQNmAWFOhU7D2I2E5gQ5YY5DWDFTMTVN0Wg4aWUN5TTV8ECdBCzNG2omykGjAZuQm0bQFEcUyRUERFlguduzd//5s43jz+TaPWfP95xl9/N6eui6rj37dluWc6719gIggLCABMICEggLSCAsIIGwgATCAhIIC0ggLCCBsIAEwgISCAtIICwggbCABMICEggLSCAsIIGwgATCAhIIC0ggLCCBsIAEwgISCAtIICwggbCABMICEggLSCAsIIGwgATCAhIIC0ggLCCBsIAEwgISCAtIICwggbCABMICEggLSCAsIIGwgATCAhIIC0ggLCCBsIAEwgISCAtIICwggbCABMICEggLSCAsIIGwgATCAhK+Si9AsPnz5y9atCh2klqtDggICAwMtFgsQ5OuXbv2999/nzlzprOz02w2K71YzzUNwlKr1cuWLXv88cdTUlIWLFhw7733OvJfDQ0NNTc3NzQ0HD16tKGhwWKx0K3QarVKPqbJZDIYDDzPj46O6nS6/v7+rq6u9kktLS2XLl2SfEYPsnDhwrKysomJCatzent7t27dOnv2bKJ1Ork8Ebq7u3fu3BkVFUX0iNwTx3GrV6+uqakxGo0SPhljY2NlZWXLly/39pb4naWEixTEbDbX1dWtWrWK4zhpH5EbevTRR0+cOEH6fLS2tq5fv97f31+qNZOu1hFarfaVV17x8fGR6hG5m23btsn2ZDQ1NUn1P0fZ1sx2+vTpmJgYSR6R+wgPD6+srJT5mWhvb1+7dq3z/2eUedkMXV1dL7zwgkTPyfTn4+Pz559/KvVkbNu2zcn1K7Xyqbz99tsSPTPiKf+mLyIi4qeffkpLS3Pw5/V6fVtbm1ar7enpGR4eHhkZUalUgYGBs2bNUqvVGo0mLi5O0K9LVqu1oqLizTffHBwcFPcQKD5ucAbP81u2bCkpKSH9kMXVffvttw7+Q9RqtZs2bZoxY4bdMUNCQjZu3FhTU2M2mx0c/NChQ6IfghMvLoQ2btwo+hE5T+FXrNzc3L1799r9daalpeXjjz/+8ccfhX6YHhsbW1BQkJ+ff88999j94fLy8ldffXV8fFzQFOxXrOHh4WeffVbogBzH+fv7z5gxIzg4ODw8fO7cuSkpKQ888IAjj+KW69evJycnd3V1CZ192luyZAnP8+x/diMjI3l5eU5ONHPmzA8++MDuB608zz/88MMixmeMqdPpnFz8LT4+PsuWLfvkk0+6urocfNGqqqqSavbpZP/+/ezzotPpEhISpJouPj5eq9UypisoKBA3sjxh3TJz5sw9e/Y42JaI18vpTa1Wj4yMMM6I0Wh86qmnpJ00Nja2vr7+rtN99913ooeVOSybVatW9fb22g2ru7s7KCiIaA2uKD8/n31GiouLKeblOK6pqemOua5fvx4aGip6TEXCsv3jPHv2rN22cnNz6dbgcg4cOMA4F6dOnaL7A0ViYuLtL5YDAwMPPvigMwMqFZbtNfjGjRvssKqrq0nX4FrY70A3bNhAOvvmzZtvzfXGG284OZqCYXl5eeXl5bHD4nme7soO1zJv3jzGiTAYDHPmzCFdQHBwsF6vt1qthw8fVqlUTo6mbFh+fn52/2z/3nvvUS/DJaxevZpxFk6fPi3DGv7444+zZ8/6+kpwqaOyYdmuqjWZTIxltLa2yrCM2ylzzXtSUhLj6Llz52RYw86dOwsKCkwmkwxzUbt8+fIvv/zC+IGkpCTq/wncQZmwIiMjGUf7+/tlWENlZeWJEydkmEge+/btYxz19vZOTk6WcTkKhaVWqxlHPfpPp2LV1tayf2DevHlyrcVLsbAmJiYYRz3rAz2J9Pf3a7Vaxg94RFg3b95kHGW/nsFU/vrrL8bR4OBgGdeiUFhXr15lHI2Li5NxLe6jp6eHcdSRy40kpExYDQ0NjKPx8fF+fn4yLsdNDA0NMY5KePOII5QJq6WlhfE2y8/Pb+XKlfKuyB2wL97neV7GtSj35p39KaiyVz9OU+x3UWNjYzKuRblNQerr6xlHn3nmGcmvmXF77N/7RFwZOy098sgj7D9vGQyGjIwMpZfpEMX/pGO7HGhgYICxkvz8fHlWorzOzk52Wz09PQ5uAaIsVwgrISGBfTJXrFghz0pslNwfq6ysjP0DERERLS0ty5cvl2tF05jdbi5evCjXWpSm0WjGx8fZ/86sVuvExER2drbSi2VxhVes48ePM5bB/lDeDa1fv559vcctu3btcubqYVKKh5WcnMzemeezzz6TYRmu5fvvv3ckLNuTlJWVpfR670LZsFQqVXt7O/vUyXxpg0uIioq6ePGig22Zzeby8vIlS5Yover/oWxYxcXF7JN24cIFD91AS61WNzc3O9iWTV1dXU5OTkBAgNJr91I2rJdeesnuNgKFhYWka3BpERER7LtJ76qjoyM7O1vyHfqEUiQsjuOKioosFgv7FOn1ek+5k2IqGo3mt99+E9qWbZurwsJCBT/xkjksjuPS09OPHTvmyMnxrJsKp6JSqQ4ePCiiLdvbr717986fP1/+ZcsZ1tKlS6urqx08J0ePHpV2dse53Hs6juNef/31Tz/9VNz1QxaLpba29sCBA0eOHBkYGCBY4F0wdpsZHBycO3eu0AE5jvOdFBQUFB4eHhkZuXjx4sTExLS0tPvuu8/BQcbGxlJSUs6fPy90dneWkZHB3tnBLp1OV1xcLM9lk86sk877778vw2OffsLCwkpKSpzc5P3GjRvbt2+nviRVuhikYTabv/jiC0lumXRb0dHRdXV1zp/r3bt3C9q1TBApYpDShx9+SPRI3Yqvr29WVlZtba2Tp3toaGjHjh3h4eGSr1CiHiRw8+bNwsJCbPguzMKFC0tKSgYHB5059TzPf/PNN9J+NiFdGOKNjY3t2rVLxC8K8K/w8PAdO3Y4mdfo6KiEW91Jl4dIjY2NixYtkurheLTZs2fn5uZWVVWJ/r4do9G4efNm6k1BSI2NjR0+fDg9PV2KMwr/6/7779+3b5/o56axsdH5+2MlrcU+vV7/888/5+TkyHxHlyAu9wGpOKmpqXl5ednZ2SL+LtbY2LhmzRr23Z5sjA9IeZ5n3zbCGNNoNPKTRkZGuru7+/r6rl692tbW1tHRYTQaRa8WBNNoNKWlpQaDQehrwJUrV8LCwkTPyxhZtitIgVxMTMxHH33kyI7Ct6utrRW9tR/C8iBhYWEVFRWOf+WJ7epncXMhLI/z2GOPtbS0ON7WmjVrRMyCsDyRj4/PunXrLly44EhYHR0dIn7VQlieKzQ0dKrvpLjD2rVrhQ6OsDyar6/vV199ZTes/fv3Cx0ZYYH9r522fbOmoDERFvy/iooKdltPPvmkoAERFnjZ/ozNvn6wtLRU0IAIC/71zjvvMGo4deqUoNEQFvxLpVL19fVNVQPP84I2QUVY/6XwrZ5KMRqNZ86cmeqoSqXCluBO8tCwvLy8Ojo6GEdl3rza/XhuWH19fYyjrnyp07TguWENDw8zjrrHt4IpyHPDYl8rNzo6KuNa3JDnhhUSEsI4irCcpGRYym4/pNFopjp07do1vV4v73LcjZJP7cqVK8+dO6fI/jBeXl6MbQHd6QsyPY63t3dTU5PVai0qKpJ/9ri4OMal8evWrRM0Gj4gdSEZGRm2Uy/uJhYnlZeXT5XC+Pi40B0oEZYLqampsZ16s9ks817ISUlJPM9PlUJ1dbXQARGWq3j++edvP/ujo6NyvtMqKytjpPDuu+8KHRBhuQSNRtPT03PHE9Dc3BwfHy/D7AUFBYy78nmej4qKEjomwnIJW7duvetzYDAYMjMzSafOzMxkRGC1Wn/99VcRwyIs5UVERDCuV5mYmPj666+jo6Mln9fb2zs3N1en07HDeu6550QMjrCUd+jQIfZTa9v04umnn5ZwUo7jSktL7c5bX18v7hscEJbCnnjiCbvPro3JZPr99983bNgQGBjozIwcx2VnZ7e2ttqdUafTxcTEiJsFYSlszpw5VVVVDrZlMzo6+sMPP7z88stCf21MSEgoKipy/DbonJwc0Y8LYbmEyspKQW3dotVqd+/enZWVFR8ff9c7tIKCglasWLF9+/ZLly4JGvnzzz935hEhLJcwa9asPXv2OPg1hVMxGo19fX1Xrlxpb29va2vr7Ozs6ekRt7tfeXm5k7vBMgZHWHLbtGmTE11J5siRI87vMcwYH2Ep4MUXXxS6i5WETCbTli1bJPkiP8YsCEsZgYGBjnwAQeGtt96S6lEwZkFYivH29s7MzHRwKxhJHD9+PDU1VcKHgLBcWmJi4pdffmn3w3HRzGZzZWVlenq65N9ji7CmAX9//9dee03a915ms/ngwYOLFy8mWjPC+i8X3Y47ICDgkUlLly596KGHIiMjhY5gsVj++eefkydPHpvU29tLs1Iv2xUTUx0yGo2itzad1lw0rDuEhoampaWlpqbGxsYuWLAgOjo6JCTkji+V0Ov1ly9f7ujoOH/+/MlJsn0RJvzX9Ajrrvz9/QMCAjiO43neYDDgFlMA9+e5N6wCKYQFJBAWkEBYQAJhAQmEBSQQFpBAWEACYQEJhAUkEBaQQFhAAmEBCYQFJBAWkEBYQAJhAQmEBSQQFpBAWEACYQEJhAUkEBaQQFhAAmEBCYQFJBAWkEBYQAJhAQmEBSQQFpBAWEACYQEJhAUkEBaQQFhAAmEBCYQFJBAWkEBYQAJhAQmEBSQQFpBAWEACYQEJhAUkEBaQQFhAAmEBCYQFJBAWkEBYQAJhAYn/CwAA//9/2Nk1jfp/PgAAAABJRU5ErkJggg==;imageBorder=#808080;fontColor=#000000;" vertex="1" parent="1">
          <mxGeometry x="120" y="290" width="100" height="100" as="geometry" />
        </mxCell>
      </root>
    </mxGraphModel>
  </diagram>
</mxfile>
